  0
SECTION
  2
HEADER
  9
$ACADVER
  1
AC1024
  9
$ACADMAINTVER
 70
6
  9
$DWGCODEPAGE
  3
ANSI_1252
  9
$LASTSAVEDBY
  1
ezdxf
  9
$INSBASE
 10
0.0
 20
0.0
 30
0.0
  9
$EXTMIN
 10
-100
 20
-100
 30
-100
  9
$EXTMAX
 10
100
 20
100
 30
100
  9
$LIMMIN
 10
0.0
 20
0.0
  9
$LIMMAX
 10
420.0
 20
297.0
  9
$ORTHOMODE
 70
0
  9
$REGENMODE
 70
1
  9
$FILLMODE
 70
1
  9
$QTEXTMODE
 70
0
  9
$MIRRTEXT
 70
1
  9
$LTSCALE
 40
1.0
  9
$ATTMODE
 70
1
  9
$TEXTSIZE
 40
2.5
  9
$TRACEWID
 40
1.0
  9
$TEXTSTYLE
  7
Standard
  9
$CLAYER
  8
0
  9
$CELTYPE
  6
ByLayer
  9
$CECOLOR
 62
256
  9
$CELTSCALE
 40
1.0
  9
$DISPSILH
 70
0
  9
$DIMSCALE
 40
1.0
  9
$DIMASZ
 40
2.5
  9
$DIMEXO
 40
0.625
  9
$DIMDLI
 40
3.75
  9
$DIMRND
 40
0.0
  9
$DIMDLE
 40
0.0
  9
$DIMEXE
 40
1.25
  9
$DIMTP
 40
0.0
  9
$DIMTM
 40
0.0
  9
$DIMTXT
 40
2.5
  9
$DIMCEN
 40
2.5
  9
$DIMTSZ
 40
0.0
  9
$DIMTOL
 70
0
  9
$DIMLIM
 70
0
  9
$DIMTIH
 70
0
  9
$DIMTOH
 70
0
  9
$DIMSE1
 70
0
  9
$DIMSE2
 70
0
  9
$DIMTAD
 70
1
  9
$DIMZIN
 70
8
  9
$DIMBLK
  1

  9
$DIMASO
 70
1
  9
$DIMSHO
 70
1
  9
$DIMPOST
  1

  9
$DIMAPOST
  1

  9
$DIMALT
 70
0
  9
$DIMALTD
 70
3
  9
$DIMALTF
 40
0.03937007874
  9
$DIMLFAC
 40
1.0
  9
$DIMTOFL
 70
1
  9
$DIMTVP
 40
0.0
  9
$DIMTIX
 70
0
  9
$DIMSOXD
 70
0
  9
$DIMSAH
 70
0
  9
$DIMBLK1
  1

  9
$DIMBLK2
  1

  9
$DIMSTYLE
  2
ISO-25
  9
$DIMCLRD
 70
0
  9
$DIMCLRE
 70
0
  9
$DIMCLRT
 70
0
  9
$DIMTFAC
 40
1.0
  9
$DIMGAP
 40
0.625
  9
$DIMJUST
 70
0
  9
$DIMSD1
 70
0
  9
$DIMSD2
 70
0
  9
$DIMTOLJ
 70
0
  9
$DIMTZIN
 70
8
  9
$DIMALTZ
 70
0
  9
$DIMALTTZ
 70
0
  9
$DIMUPT
 70
0
  9
$DIMDEC
 70
2
  9
$DIMTDEC
 70
2
  9
$DIMALTU
 70
2
  9
$DIMALTTD
 70
3
  9
$DIMTXSTY
  7
Standard
  9
$DIMAUNIT
 70
0
  9
$DIMADEC
 70
0
  9
$DIMALTRND
 40
0.0
  9
$DIMAZIN
 70
0
  9
$DIMDSEP
 70
44
  9
$DIMATFIT
 70
3
  9
$DIMFRAC
 70
0
  9
$DIMLDRBLK
  1

  9
$DIMLUNIT
 70
2
  9
$DIMLWD
 70
-2
  9
$DIMLWE
 70
-2
  9
$DIMTMOVE
 70
0
  9
$DIMFXL
 40
1.0
  9
$DIMFXLON
 70
0
  9
$DIMJOGANG
 40
0.785398163397
  9
$DIMTFILL
 70
0
  9
$DIMTFILLCLR
 70
0
  9
$DIMARCSYM
 70
0
  9
$DIMLTYPE
  6

  9
$DIMLTEX1
  6

  9
$DIMLTEX2
  6

  9
$DIMTXTDIRECTION
 70
0
  9
$LUNITS
 70
2
  9
$LUPREC
 70
4
  9
$SKETCHINC
 40
1.0
  9
$FILLETRAD
 40
10.0
  9
$AUNITS
 70
0
  9
$AUPREC
 70
2
  9
$MENU
  1
.
  9
$ELEVATION
 40
0.0
  9
$PELEVATION
 40
0.0
  9
$THICKNESS
 40
0.0
  9
$LIMCHECK
 70
0
  9
$CHAMFERA
 40
0.0
  9
$CHAMFERB
 40
0.0
  9
$CHAMFERC
 40
0.0
  9
$CHAMFERD
 40
0.0
  9
$SKPOLY
 70
0
  9
$TDCREATE
 40
2461025.6608564816
  9
$TDUCREATE
 40
2458532.153996898
  9
$TDUPDATE
 40
2461025.6608564816
  9
$TDUUPDATE
 40
2458532.1544311
  9
$TDINDWG
 40
0.0
  9
$TDUSRTIMER
 40
0.0
  9
$USRTIMER
 70
1
  9
$ANGBASE
 50
0.0
  9
$ANGDIR
 70
0
  9
$PDMODE
 70
0
  9
$PDSIZE
 40
0.0
  9
$PLINEWID
 40
0.0
  9
$SPLFRAME
 70
0
  9
$SPLINETYPE
 70
6
  9
$SPLINESEGS
 70
8
  9
$HANDSEED
  5
2F
  9
$SURFTAB1
 70
6
  9
$SURFTAB2
 70
6
  9
$SURFTYPE
 70
6
  9
$SURFU
 70
6
  9
$SURFV
 70
6
  9
$UCSBASE
  2

  9
$UCSNAME
  2

  9
$UCSORG
 10
0.0
 20
0.0
 30
0.0
  9
$UCSXDIR
 10
1.0
 20
0.0
 30
0.0
  9
$UCSYDIR
 10
0.0
 20
1.0
 30
0.0
  9
$UCSORTHOREF
  2

  9
$UCSORTHOVIEW
 70
0
  9
$UCSORGTOP
 10
0.0
 20
0.0
 30
0.0
  9
$UCSORGBOTTOM
 10
0.0
 20
0.0
 30
0.0
  9
$UCSORGLEFT
 10
0.0
 20
0.0
 30
0.0
  9
$UCSORGRIGHT
 10
0.0
 20
0.0
 30
0.0
  9
$UCSORGFRONT
 10
0.0
 20
0.0
 30
0.0
  9
$UCSORGBACK
 10
0.0
 20
0.0
 30
0.0
  9
$PUCSBASE
  2

  9
$PUCSNAME
  2

  9
$PUCSORG
 10
0.0
 20
0.0
 30
0.0
  9
$PUCSXDIR
 10
1.0
 20
0.0
 30
0.0
  9
$PUCSYDIR
 10
0.0
 20
1.0
 30
0.0
  9
$PUCSORTHOREF
  2

  9
$PUCSORTHOVIEW
 70
0
  9
$PUCSORGTOP
 10
0.0
 20
0.0
 30
0.0
  9
$PUCSORGBOTTOM
 10
0.0
 20
0.0
 30
0.0
  9
$PUCSORGLEFT
 10
0.0
 20
0.0
 30
0.0
  9
$PUCSORGRIGHT
 10
0.0
 20
0.0
 30
0.0
  9
$PUCSORGFRONT
 10
0.0
 20
0.0
 30
0.0
  9
$PUCSORGBACK
 10
0.0
 20
0.0
 30
0.0
  9
$USERI1
 70
0
  9
$USERI2
 70
0
  9
$USERI3
 70
0
  9
$USERI4
 70
0
  9
$USERI5
 70
0
  9
$USERR1
 40
0.0
  9
$USERR2
 40
0.0
  9
$USERR3
 40
0.0
  9
$USERR4
 40
0.0
  9
$USERR5
 40
0.0
  9
$WORLDVIEW
 70
1
  9
$SHADEDGE
 70
3
  9
$SHADEDIF
 70
70
  9
$TILEMODE
 70
1
  9
$MAXACTVP
 70
64
  9
$PINSBASE
 10
0.0
 20
0.0
 30
0.0
  9
$PLIMCHECK
 70
0
  9
$PEXTMIN
 10
1e+20
 20
1e+20
 30
1e+20
  9
$PEXTMAX
 10
-1e+20
 20
-1e+20
 30
-1e+20
  9
$PLIMMIN
 10
0.0
 20
0.0
  9
$PLIMMAX
 10
420.0
 20
297.0
  9
$UNITMODE
 70
0
  9
$VISRETAIN
 70
1
  9
$PLINEGEN
 70
0
  9
$PSLTSCALE
 70
1
  9
$TREEDEPTH
 70
3020
  9
$CMLSTYLE
  2
Standard
  9
$CMLJUST
 70
0
  9
$CMLSCALE
 40
20.0
  9
$PROXYGRAPHICS
 70
1
  9
$MEASUREMENT
 70
1
  9
$CELWEIGHT
370
-1
  9
$ENDCAPS
280
0
  9
$JOINSTYLE
280
0
  9
$LWDISPLAY
290
0
  9
$INSUNITS
 70
6
  9
$HYPERLINKBASE
  1

  9
$STYLESHEET
  1

  9
$XEDIT
290
1
  9
$CEPSNTYPE
380
0
  9
$PSTYLEMODE
290
1
  9
$FINGERPRINTGUID
  2
2DB56736-D9BD-11F0-9C83-0045E25FCCFC
  9
$VERSIONGUID
  2
2DB5DBD8-D9BD-11F0-A65B-0045E25FCCFC
  9
$EXTNAMES
290
1
  9
$PSVPSCALE
 40
0.0
  9
$OLESTARTUP
290
0
  9
$SORTENTS
280
127
  9
$INDEXCTL
280
0
  9
$HIDETEXT
280
1
  9
$XCLIPFRAME
280
2
  9
$HALOGAP
280
0
  9
$OBSCOLOR
 70
257
  9
$OBSLTYPE
280
0
  9
$INTERSECTIONDISPLAY
280
0
  9
$INTERSECTIONCOLOR
 70
257
  9
$DIMASSOC
280
2
  9
$PROJECTNAME
  1

  9
$CAMERADISPLAY
290
0
  9
$LENSLENGTH
 40
50.0
  9
$CAMERAHEIGHT
 40
0.0
  9
$STEPSPERSEC
 40
24.0
  9
$STEPSIZE
 40
100.0
  9
$3DDWFPREC
 40
2.0
  9
$PSOLWIDTH
 40
0.005
  9
$PSOLHEIGHT
 40
0.08
  9
$LOFTANG1
 40
1.570796326795
  9
$LOFTANG2
 40
1.570796326795
  9
$LOFTMAG1
 40
0.0
  9
$LOFTMAG2
 40
0.0
  9
$LOFTPARAM
 70
7
  9
$LOFTNORMALS
280
1
  9
$LATITUDE
 40
37.795
  9
$LONGITUDE
 40
-122.394
  9
$NORTHDIRECTION
 40
0.0
  9
$TIMEZONE
 70
-8000
  9
$LIGHTGLYPHDISPLAY
280
1
  9
$TILEMODELIGHTSYNCH
280
1
  9
$CMATERIAL
347
20
  9
$SOLIDHIST
280
0
  9
$SHOWHIST
280
1
  9
$DWFFRAME
280
2
  9
$DGNFRAME
280
2
  9
$REALWORLDSCALE
290
1
  9
$INTERFERECOLOR
 62
256
  9
$CSHADOW
280
0
  9
$SHADOWPLANELOCATION
 40
0.0
  0
ENDSEC
  0
SECTION
  2
CLASSES
  0
CLASS
  1
ACDBDICTIONARYWDFLT
  2
AcDbDictionaryWithDefault
  3
ObjectDBX Classes
 90
0
 91
0
280
0
281
0
  0
CLASS
  1
SUN
  2
AcDbSun
  3
SCENEOE
 90
1153
 91
0
280
0
281
0
  0
CLASS
  1
VISUALSTYLE
  2
AcDbVisualStyle
  3
ObjectDBX Classes
 90
4095
 91
0
280
0
281
0
  0
CLASS
  1
MATERIAL
  2
AcDbMaterial
  3
ObjectDBX Classes
 90
1153
 91
0
280
0
281
0
  0
CLASS
  1
SCALE
  2
AcDbScale
  3
ObjectDBX Classes
 90
1153
 91
0
280
0
281
0
  0
CLASS
  1
TABLESTYLE
  2
AcDbTableStyle
  3
ObjectDBX Classes
 90
4095
 91
0
280
0
281
0
  0
CLASS
  1
MLEADERSTYLE
  2
AcDbMLeaderStyle
  3
ACDB_MLEADERSTYLE_CLASS
 90
4095
 91
0
280
0
281
0
  0
CLASS
  1
DICTIONARYVAR
  2
AcDbDictionaryVar
  3
ObjectDBX Classes
 90
0
 91
0
280
0
281
0
  0
CLASS
  1
CELLSTYLEMAP
  2
AcDbCellStyleMap
  3
ObjectDBX Classes
 90
1152
 91
0
280
0
281
0
  0
CLASS
  1
MENTALRAYRENDERSETTINGS
  2
AcDbMentalRayRenderSettings
  3
SCENEOE
 90
1024
 91
0
280
0
281
0
  0
CLASS
  1
ACDBDETAILVIEWSTYLE
  2
AcDbDetailViewStyle
  3
ObjectDBX Classes
 90
1025
 91
0
280
0
281
0
  0
CLASS
  1
ACDBSECTIONVIEWSTYLE
  2
AcDbSectionViewStyle
  3
ObjectDBX Classes
 90
1025
 91
0
280
0
281
0
  0
CLASS
  1
RASTERVARIABLES
  2
AcDbRasterVariables
  3
ISM
 90
0
 91
0
280
0
281
0
  0
CLASS
  1
ACDBPLACEHOLDER
  2
AcDbPlaceHolder
  3
ObjectDBX Classes
 90
0
 91
0
280
0
281
0
  0
CLASS
  1
LAYOUT
  2
AcDbLayout
  3
ObjectDBX Classes
 90
0
 91
0
280
0
281
0
  0
ENDSEC
  0
SECTION
  2
TABLES
  0
TABLE
  2
VPORT
  5
9
330
0
100
AcDbSymbolTable
 70
1
  0
VPORT
  5
23
330
9
100
AcDbSymbolTableRecord
100
AcDbViewportTableRecord
  2
*Active
 70
0
 10
0.0
 20
0.0
 11
1.0
 21
1.0
 12
70.0
 22
50.0
 13
0.0
 23
0.0
 14
0.5
 24
0.5
 15
0.5
 25
0.5
 16
0.0
 26
0.0
 36
1.0
 17
0.0
 27
0.0
 37
0.0
 40
1.0
 41
1.34
 42
50.0
 43
0.0
 44
0.0
 50
0.0
 51
0.0
 71
0
 72
1000
 73
1
 74
3
 75
0
 76
0
 77
0
 78
0
281
0
 65
0
146
0.0
  0
ENDTAB
  0
TABLE
  2
LTYPE
  5
7
330
0
100
AcDbSymbolTable
 70
3
  0
LTYPE
  5
24
330
7
100
AcDbSymbolTableRecord
100
AcDbLinetypeTableRecord
  2
ByBlock
 70
0
  3

 72
65
 73
0
 40
0.0
  0
LTYPE
  5
25
330
7
100
AcDbSymbolTableRecord
100
AcDbLinetypeTableRecord
  2
ByLayer
 70
0
  3

 72
65
 73
0
 40
0.0
  0
LTYPE
  5
26
330
7
100
AcDbSymbolTableRecord
100
AcDbLinetypeTableRecord
  2
Continuous
 70
0
  3

 72
65
 73
0
 40
0.0
  0
ENDTAB
  0
TABLE
  2
LAYER
  5
3
330
0
100
AcDbSymbolTable
 70
2
  0
LAYER
  5
27
330
3
100
AcDbSymbolTableRecord
100
AcDbLayerTableRecord
  2
0
 70
0
 62
7
  6
Continuous
370
-3
390
13
347
21
  0
LAYER
  5
28
330
3
100
AcDbSymbolTableRecord
100
AcDbLayerTableRecord
  2
Defpoints
 70
0
 62
7
  6
Continuous
290
0
370
-3
390
13
347
21
  0
ENDTAB
  0
TABLE
  2
STYLE
  5
2
330
0
100
AcDbSymbolTable
 70
1
  0
STYLE
  5
29
330
2
100
AcDbSymbolTableRecord
100
AcDbTextStyleTableRecord
  2
Standard
 70
0
 40
0.0
 41
1.0
 50
0.0
 71
0
 42
2.5
  3
txt
  4

  0
ENDTAB
  0
TABLE
  2
VIEW
  5
4
330
0
100
AcDbSymbolTable
 70
0
  0
ENDTAB
  0
TABLE
  2
UCS
  5
1
330
0
100
AcDbSymbolTable
 70
0
  0
ENDTAB
  0
TABLE
  2
APPID
  5
6
330
0
100
AcDbSymbolTable
 70
1
  0
APPID
  5
2A
330
6
100
AcDbSymbolTableRecord
100
AcDbRegAppTableRecord
  2
ACAD
 70
0
  0
ENDTAB
  0
TABLE
  2
DIMSTYLE
  5
8
330
0
100
AcDbSymbolTable
 70
1
100
AcDbDimStyleTable
  0
DIMSTYLE
105
2B
330
8
100
AcDbSymbolTableRecord
100
AcDbDimStyleTableRecord
  2
Standard
 70
0
 40
1.0
 41
2.5
 42
0.625
 43
3.75
 44
1.25
 45
0.0
 46
0.0
 47
0.0
 48
0.0
 49
2.5
140
2.5
141
2.5
142
0.0
143
0.03937007874
144
1.0
145
0.0
146
1.0
147
0.625
148
0.0
 69
0
 70
0
 71
0
 72
0
 73
0
 74
0
 75
0
 76
0
 77
1
 78
8
 79
0
170
0
171
3
172
1
173
0
174
0
175
0
176
0
177
0
178
0
179
0
271
0
272
2
273
2
274
3
275
0
276
0
277
2
278
44
279
0
280
0
281
0
282
0
283
0
284
8
285
0
286
0
288
0
289
3
290
0
371
-2
372
-2
  0
ENDTAB
  0
TABLE
  2
BLOCK_RECORD
  5
5
330
0
100
AcDbSymbolTable
 70
2
  0
BLOCK_RECORD
  5
17
330
5
100
AcDbSymbolTableRecord
100
AcDbBlockTableRecord
  2
*Model_Space
340
1A
 70
0
280
1
281
1
  0
BLOCK_RECORD
  5
1B
330
5
100
AcDbSymbolTableRecord
100
AcDbBlockTableRecord
  2
*Paper_Space
340
1E
 70
0
280
1
281
1
  0
ENDTAB
  0
ENDSEC
  0
SECTION
  2
BLOCKS
  0
BLOCK
  5
18
330
17
100
AcDbEntity
  8
0
100
AcDbBlockBegin
  2
*Model_Space
 70
0
 10
0.0
 20
0.0
 30
0.0
  3
*Model_Space
  1

  0
ENDBLK
  5
19
330
17
100
AcDbEntity
  8
0
100
AcDbBlockEnd
  0
BLOCK
  5
1C
330
1B
100
AcDbEntity
  8
0
100
AcDbBlockBegin
  2
*Paper_Space
 70
0
 10
0.0
 20
0.0
 30
0.0
  3
*Paper_Space
  1

  0
ENDBLK
  5
1D
330
1B
100
AcDbEntity
  8
0
100
AcDbBlockEnd
  0
ENDSEC
  0
SECTION
  2
ENTITIES
  0
LWPOLYLINE
  5
2D
330
17
100
AcDbEntity
  8
0
100
AcDbPolyline
 90
325
 70
0
 43
0.0
 10
59.92498759624687
 20
-80.00000000245483
 10
59.92498759625289
 20
-129.9999999976677
 10
59.92500265532334
 20
-130.0012270592774
 10
59.925047823463665
 20
-130.00245338175077
 10
59.925168265186365
 20
-130.00490502884767
 10
59.92524351517093
 20
-130.0061298732494
 10
59.925348801677984
 20
-130.0073525020238
 10
59.92548406128686
 20
-130.00857217870504
 10
59.92564921252223
 20
-130.0097881686055
 10
59.92600937734405
 20
-130.01221620244587
 10
59.92620432072496
 20
-130.01342777309853
 10
59.92642893882482
 20
-130.0146341946987
 10
59.926683096342096
 20
-130.0158347405431
 10
59.92696664018179
 20
-130.01702868746787
 10
59.92756305964511
 20
-130.01940972733547
 10
59.92787581901105
 20
-130.02059635615163
 10
59.92821760550866
 20
-130.0217749520783
 10
59.92858821325853
 20
-130.02294480517332
 10
59.92898741902042
 20
-130.02410521076104
 10
59.92981434927987
 20
-130.02641632594074
 10
59.93024191258721
 20
-130.02756658503628
 10
59.930697575891806
 20
-130.02870600476646
 10
59.93118106471912
 20
-130.02983389878742
 10
59.931692087833554
 20
-130.030949587698
 10
59.93274156509877
 20
-130.0331685208873
 10
59.933279814679054
 20
-130.03427133263807
 10
59.93384496650383
 20
-130.03536060293663
 10
59.93443668014675
 20
-130.03643567564725
 10
59.93505459918166
 20
-130.03749590318634
 10
59.93631651641276
 20
-130.03960128484542
 10
59.93696026862842
 20
-130.0406460285717
 10
59.93762946625248
 20
-130.04167465917044
 10
59.93832370618532
 20
-130.04268655703308
 10
59.93904257024277
 20
-130.04368111263014
 10
59.94050477448697
 20
-130.04565266678264
 10
59.941247829651914
 20
-130.04662928103068
 10
59.94201462833596
 20
-130.04758736565418
 10
59.94280470864827
 20
-130.04852634353875
 10
59.943617594674
 20
-130.04944564907925
 10
59.945266004104965
 20
-130.05126438858093
 10
59.94610120619235
 20
-130.05216346802248
 10
59.94695822124653
 20
-130.05304177979284
 10
59.94783653303367
 20
-130.05389879482982
 10
59.948735612491596
 20
-130.05473399689959
 10
59.950554352026
 20
-130.05638240629528
 10
59.951473657582696
 20
-130.05719529230322
 10
59.95241263548303
 20
-130.05798537259733
 10
59.95337072012182
 20
-130.0587521712628
 10
59.95434733438471
 20
-130.05949522640879
 10
59.956318888566
 20
-130.06095743061437
 10
59.957313444176975
 20
-130.06167629465216
 10
59.95832534205302
 20
-130.06237053456502
 10
59.9593539726647
 20
-130.06303973216876
 10
59.96039871640338
 20
-130.06368348436382
 10
59.96250409808658
 20
-130.06494540155327
 10
59.963564325637826
 20
-130.0655633205674
 10
59.964639398360084
 20
-130.06615503418928
 10
59.96572866866975
 20
-130.06672018599272
 10
59.966831480431125
 20
-130.0672584355514
 10
59.96905041364153
 20
-130.06830791277335
 10
59.970166102562224
 20
-130.06881893586595
 10
59.97129399659277
 20
-130.06930242467118
 10
59.972433416331974
 20
-130.06975808795346
 10
59.973583675436004
 20
-130.0701856512383
 10
59.97589479063218
 20
-130.0710125814525
 10
59.977055196227454
 20
-130.07141178719152
 10
59.978225049329524
 20
-130.0717823949184
 10
59.97940364526263
 20
-130.0721241813928
 10
59.98059027408464
 20
-130.07243694073543
 10
59.982971313963255
 20
-130.07303336015192
 10
59.984165260893725
 20
-130.07331690396825
 10
59.985365806743296
 20
-130.07357106146205
 10
59.98657222834804
 20
-130.07379567953828
 10
59.98778379900469
 20
-130.07399062289545
 10
59.99021183285211
 20
-130.07435078766966
 10
59.991427822664576
 20
-130.07451593886995
 10
59.99264749925675
 20
-130.07465119844812
 10
59.99387012794116
 20
-130.07475648492894
 10
59.99509497225211
 20
-130.07483173489175
 10
59.9975466191067
 20
-130.07495217657242
 10
59.99877294127435
 20
-130.0749973446902
 10
60.000000002577785
 20
-130.07501240375314
 10
129.99999999766789
 20
-130.0750124037471
 10
130.00122705927777
 20
-130.07499734467666
 10
130.00245338175134
 20
-130.0749521765363
 10
130.00490502884816
 20
-130.07483173481359
 10
130.00612987324985
 20
-130.074756484829
 10
130.00735250202425
 20
-130.07465119832196
 10
130.0085721787055
 20
-130.07451593871306
 10
130.00978816860595
 20
-130.0743507874777
 10
130.01221620244635
 20
-130.07399062265586
 10
130.01342777309895
 20
-130.07379567927495
 10
130.01463419469906
 20
-130.0735710611751
 10
130.01583474054343
 20
-130.07331690365783
 10
130.01702868746813
 20
-130.07303335981814
 10
130.01940972733576
 20
-130.0724369403548
 10
130.020596356152
 20
-130.07212418098882
 10
130.02177495207877
 20
-130.07178239449118
 10
130.02294480517392
 20
-130.07141178674127
 10
130.02410521076172
 20
-130.07101258097933
 10
130.02641632594143
 20
-130.07018565071985
 10
130.02756658503696
 20
-130.0697580874125
 10
130.02870600476712
 20
-130.0693024241079
 10
130.02983389878807
 20
-130.06881893528058
 10
130.03094958769864
 20
-130.06830791216615
 10
130.03316852088818
 20
-130.0672584349008
 10
130.03427133263884
 20
-130.06672018532055
 10
130.03536060293726
 20
-130.06615503349585
 10
130.03643567564774
 20
-130.06556331985297
 10
130.0374959031867
 20
-130.06494540081815
 10
130.0396012848453
 20
-130.06368348358734
 10
130.04064602857164
 20
-130.06303973137162
 10
130.0416746591705
 20
-130.0623705337475
 10
130.0426865570332
 20
-130.0616762938146
 10
130.04368111263034
 20
-130.06095742975708
 10
130.045652666783
 20
-130.05949522551273
 10
130.0466292810309
 20
-130.0587521703479
 10
130.04758736565424
 20
-130.05798537166396
 10
130.04852634353867
 20
-130.05719529135177
 10
130.04944564907905
 20
-130.0563824053262
 10
130.05126438858068
 20
-130.0547339958953
 10
130.0521634680224
 20
-130.05389879380778
 10
130.0530417797929
 20
-130.05304177875345
 10
130.05389879483002
 20
-130.05216346696616
 10
130.05473399689993
 20
-130.05126438750807
 10
130.0563824062955
 20
-130.04944564797376
 10
130.05719529230333
 20
-130.04852634241715
 10
130.05798537259736
 20
-130.04758736451694
 10
130.05875217126274
 20
-130.04662927987826
 10
130.05949522640861
 20
-130.04565266561548
 10
130.0609574306143
 20
-130.04368111143404
 10
130.06167629465216
 20
-130.042686555823
 10
130.06237053456508
 20
-130.04167465794686
 10
130.0630397321689
 20
-130.0406460273351
 10
130.063683484364
 20
-130.03960128359634
 10
130.0649454015535
 20
-130.03749590191302
 10
130.06556332056758
 20
-130.03643567436185
 10
130.0661550341894
 20
-130.0353606016397
 10
130.06672018599278
 20
-130.03427133133013
 10
130.06725843555142
 20
-130.03316851956885
 10
130.06830791277324
 20
-130.03094958635876
 10
130.0688189358658
 20
-130.02983389743815
 10
130.069302424671
 20
-130.02870600340768
 10
130.06975808795326
 20
-130.02756658366854
 10
130.07018565123806
 20
-130.0264163245646
 10
130.07101258145227
 20
-130.02410520936849
 10
130.07141178719138
 20
-130.02294480377302
 10
130.0717823949183
 20
-130.02177495067076
 10
130.0721241813928
 20
-130.02059635473745
 10
130.07243694073546
 20
-130.01940972591524
 10
130.0730333601521
 20
-130.01702868603599
 10
130.07331690396842
 20
-130.0158347391055
 10
130.0735710614622
 20
-130.0146341932559
 10
130.07379567953845
 20
-130.01342777165112
 10
130.07399062289562
 20
-130.01221620099446
 10
130.07435078766974
 20
-130.00978816714746
 10
130.07451593886998
 20
-130.00857217733508
 10
130.07465119844815
 20
-130.00735250074302
 10
130.07475648492897
 20
-130.0061298720587
 10
130.07483173489175
 20
-130.00490502774784
 10
130.07495217657242
 20
-130.0024533808932
 10
130.0749973446902
 20
-130.0012270587256
 10
130.07501240375314
 20
-129.99999999742218
 10
130.0750124037471
 20
-80.00000000233211
 10
130.07499734467666
 20
-79.9987729407222
 10
130.0749521765363
 20
-79.99754661824863
 10
130.07483173481359
 20
-79.99509497115184
 10
130.074756484829
 20
-79.99387012675024
 10
130.074651198322
 20
-79.99264749797594
 10
130.07451593871312
 20
-79.9914278212948
 10
130.07435078747775
 20
-79.99021183139445
 10
130.0739906226559
 20
-79.98778379755392
 10
130.07379567927495
 20
-79.98657222690099
 10
130.07357106117504
 20
-79.98536580530056
 10
130.07331690365768
 20
-79.98416525945588
 10
130.0730333598179
 20
-79.98297131253088
 10
130.0724369403545
 20
-79.9805902726631
 10
130.07212418098857
 20
-79.97940364384705
 10
130.07178239449095
 20
-79.9782250479205
 10
130.0714117867411
 20
-79.97705519482554
 10
130.07101258097921
 20
-79.97589478923796
 10
130.0701856507198
 20
-79.97358367405842
 10
130.06975808741242
 20
-79.97243341496284
 10
130.0693024241078
 20
-79.97129399523264
 10
130.06881893528046
 20
-79.97016610121165
 10
130.068307912166
 20
-79.96905041230104
 10
130.06725843490076
 20
-79.96683147911178
 10
130.0667201853206
 20
-79.96572866736129
 10
130.06615503349596
 20
-79.96463939706302
 10
130.0655633198532
 20
-79.96356432435267
 10
130.06494540081846
 20
-79.96250409681386
 10
130.06368348358757
 20
-79.96039871515508
 10
130.06303973137184
 20
-79.95935397142868
 10
130.0623705337477
 20
-79.95832534082979
 10
130.06167629381477
 20
-79.95731344296703
 10
130.06095742975722
 20
-79.95631888736985
 10
130.05949522551293
 20
-79.95434733321723
 10
130.05875217034801
 20
-79.95337071896924
 10
130.05798537166402
 20
-79.9524126343458
 10
130.05719529135175
 20
-79.95147365646127
 10
130.05638240532608
 20
-79.95055435092081
 10
130.05473399589513
 20
-79.94873561141914
 10
130.0538987938077
 20
-79.94783653197753
 10
130.05304177875345
 20
-79.94695822020712
 10
130.05216346696625
 20
-79.94610120517011
 10
130.05126438750827
 20
-79.94526600310029
 10
130.04944564797407
 20
-79.94361759370479
 10
130.04852634241755
 20
-79.942804707697
 10
130.04758736451737
 20
-79.94201462740301
 10
130.04662927987877
 20
-79.94124782873767
 10
130.04565266561605
 20
-79.94050477359181
 10
130.04368111143475
 20
-79.93904256938619
 10
130.04268655582368
 20
-79.93832370534831
 10
130.04167465794754
 20
-79.93762946543536
 10
130.04064602733575
 20
-79.93696026783154
 10
130.03960128359697
 20
-79.93631651563642
 10
130.03749590191333
 20
-79.9350545984467
 10
130.03643567436208
 20
-79.93443667943252
 10
130.03536060163978
 20
-79.93384496581064
 10
130.03427133133007
 20
-79.9332798140072
 10
130.03316851956868
 20
-79.93274156444849
 10
130.03094958635884
 20
-79.9316920872268
 10
130.02983389743844
 20
-79.93118106413434
 10
130.02870600340822
 20
-79.93069757532922
 10
130.0275665836693
 20
-79.93024191204702
 10
130.0264163245656
 20
-79.92981434876229
 10
130.02410520936968
 20
-79.92898741854812
 10
130.02294480377407
 20
-79.92858821280893
 10
130.0217749506716
 20
-79.92821760508194
 10
130.02059635473816
 20
-79.9278758186074
 10
130.01940972591578
 20
-79.9275630592647
 10
130.01702868603627
 20
-79.92696663984799
 10
130.01583473910583
 20
-79.92668309603165
 10
130.01463419325626
 20
-79.92642893853788
 10
130.01342777165155
 20
-79.92620432046165
 10
130.0122162009949
 20
-79.92600937710448
 10
130.00978816714755
 20
-79.92564921233028
 10
130.00857217733497
 20
-79.92548406113
 10
130.0073525007427
 20
-79.9253488015518
 10
130.0061298720582
 20
-79.925243515071
 10
130.00490502774716
 20
-79.9251682651082
 10
130.00245338089263
 20
-79.92504782342755
 10
130.00122705872525
 20
-79.9250026553098
 10
129.99999999742207
 20
-79.92498759624688
 10
60.00000000233225
 20
-79.9249875962529
 10
59.99877294072259
 20
-79.92500265532335
 10
59.99754661824926
 20
-79.92504782346367
 10
59.99509497115227
 20
-79.92516826518637
 10
59.9938701267505
 20
-79.92524351517093
 10
59.99264749797603
 20
-79.925348801678
 10
59.99142782129472
 20
-79.92548406128688
 10
59.9902118313942
 20
-79.92564921252226
 10
59.987783797553924
 20
-79.92600937734407
 10
59.98657222690126
 20
-79.92620432072499
 10
59.98536580530108
 20
-79.92642893882486
 10
59.984165259456645
 20
-79.92668309634213
 10
59.982971312531895
 20
-79.92696664018185
 10
59.98059027266428
 20
-79.92756305964518
 10
59.979403643848
 20
-79.92787581901115
 10
59.97822504792122
 20
-79.9282176055088
 10
59.977055194826036
 20
-79.92858821325873
 10
59.97589478923822
 20
-79.92898741902069
 10
59.97358367405842
 20
-79.9298143492802
 10
59.9724334149631
 20
-79.93024191258748
 10
59.97129399523315
 20
-79.930697575892
 10
59.97016610121239
 20
-79.93118106471921
 10
59.96905041230203
 20
-79.93169208783355
 10
59.96683147911286
 20
-79.9327415650987
 10
59.96572866736206
 20
-79.93327981467898
 10
59.964639397063486
 20
-79.93384496650377
 10
59.963564324352845
 20
-79.9344366801467
 10
59.96250409681374
 20
-79.93505459918161
 10
59.96039871515471
 20
-79.93631651641267
 10
59.95935397142852
 20
-79.93696026862828
 10
59.95832534082984
 20
-79.93762946625229
 10
59.95731344296728
 20
-79.93832370618507
 10
59.95631888737029
 20
-79.93904257024246
 10
59.95434733321781
 20
-79.94050477448661
 10
59.95337071896954
 20
-79.94124782965172
 10
59.952412634345826
 20
-79.94201462833594
 10
59.95147365646104
 20
-79.94280470864844
 10
59.95055435092033
 20
-79.94361759467436
 10
59.94873561141848
 20
-79.94526600410552
 10
59.94783653197709
 20
-79.94610120619276
 10
59.94695822020691
 20
-79.9469582212468
 10
59.9461012051701
 20
-79.94783653303378
 10
59.94526600310048
 20
-79.94873561249155
 10
59.943617593704964
 20
-79.95055435202573
 10
59.9428047076971
 20
-79.95147365758234
 10
59.94201462740305
 20
-79.95241263548257
 10
59.94124782873763
 20
-79.95337072012127
 10
59.940504773591705
 20
-79.95434733438407
 10
59.93904256938623
 20
-79.95631888856516
 10
59.93832370534831
 20
-79.9573134441763
 10
59.93762946543533
 20
-79.9583253420525
 10
59.93696026783146
 20
-79.95935397266435
 10
59.93631651563631
 20
-79.9603987164032
 10
59.93505459844649
 20
-79.96250409808702
 10
59.93443667943238
 20
-79.9635643256382
 10
59.93384496581055
 20
-79.9646393983604
 10
59.93327981400715
 20
-79.96572866867001
 10
59.93274156444849
 20
-79.96683148043132
 10
59.93169208722685
 20
-79.96905041364106
 10
59.931181064134336
 20
-79.97016610256155
 10
59.93069757532918
 20
-79.97129399659188
 10
59.93024191204696
 20
-79.97243341633089
 10
59.9298143487622
 20
-79.9735836754347
 10
59.92898741854801
 20
-79.97589479063069
 10
59.928588212808855
 20
-79.97705519622623
 10
59.9282176050819
 20
-79.97822504932857
 10
59.92787581860738
 20
-79.97940364526194
 10
59.927563059264706
 20
-79.98059027408424
 10
59.92696663984802
 20
-79.98297131396365
 10
59.9266830960317
 20
-79.98416526089403
 10
59.92642893853794
 20
-79.9853658067435
 10
59.926204320461714
 20
-79.98657222834815
 10
59.92600937710454
 20
-79.98778379900472
 10
59.92564921233035
 20
-79.99021183285197
 10
59.925484061133815
 20
-79.99142782263405
 10
59.925348801557874
 20
-79.99264749919567
 10
59.92524351507782
 20
-79.99387012784942
 10
59.925168265114266
 20
-79.99509497212966
 10
59.9250478234336
 20
-79.99754661886122
 10
59.92500265531131
 20
-79.99877294109008
 10
59.92498759624687
 20
-80.00000000245483
  0
LWPOLYLINE
  5
2E
330
17
100
AcDbEntity
  8
0
100
AcDbPolyline
 90
5
 70
0
 43
0.0
 10
60.07501250874182
 20
-80.07501240383175
 10
60.075012403858324
 20
-129.92498748632548
 10
129.92498748635697
 20
-129.92498759616825
 10
129.92498759613676
 20
-80.07501251367448
 10
60.07501250874182
 20
-80.07501240383175
  0
ENDSEC
  0
SECTION
  2
OBJECTS
  0
DICTIONARY
  5
A
330
0
100
AcDbDictionary
281
1
  3
ACAD_COLOR
350
B
  3
ACAD_VISUALSTYLE
350
16
  3
ACAD_SCALELIST
350
14
  3
ACAD_MLINESTYLE
350
10
  3
ACAD_PLOTSTYLENAME
350
12
  3
ACAD_MATERIAL
350
E
  3
ACAD_GROUP
350
C
  3
ACAD_TABLESTYLE
350
15
  3
ACAD_LAYOUT
350
D
  3
ACAD_MLEADERSTYLE
350
F
  3
ACAD_PLOTSETTINGS
350
11
  0
DICTIONARY
  5
B
330
A
100
AcDbDictionary
281
1
  0
DICTIONARY
  5
C
330
A
100
AcDbDictionary
281
1
  0
DICTIONARY
  5
D
330
A
100
AcDbDictionary
281
1
  3
Model
350
1A
  3
Layout1
350
1E
  0
DICTIONARY
  5
E
330
A
100
AcDbDictionary
281
1
  3
Global
350
21
  3
ByLayer
350
20
  3
ByBlock
350
1F
  0
DICTIONARY
  5
F
330
A
100
AcDbDictionary
281
1
  3
Standard
350
2C
  0
DICTIONARY
  5
10
330
A
100
AcDbDictionary
281
1
  3
Standard
350
22
  0
DICTIONARY
  5
11
330
A
100
AcDbDictionary
281
1
  0
ACDBDICTIONARYWDFLT
  5
12
330
A
100
AcDbDictionary
281
1
  3
Normal
350
13
100
AcDbDictionaryWithDefault
340
13
  0
ACDBPLACEHOLDER
  5
13
330
12
  0
DICTIONARY
  5
14
330
A
100
AcDbDictionary
281
1
  0
DICTIONARY
  5
15
330
A
100
AcDbDictionary
281
1
  0
DICTIONARY
  5
16
330
A
100
AcDbDictionary
281
1
  0
LAYOUT
  5
1A
330
D
100
AcDbPlotSettings
  1

  2
Adobe PDF
  4
A4
  6

 40
3.175
 41
3.175
 42
3.175
 43
3.175
 44
209.91
 45
297.03
 46
0.0
 47
0.0
 48
0.0
 49
0.0
140
0.0
141
0.0
142
1.0
143
1.0
 70
688
 72
0
 73
1
 74
5
  7

 75
16
 76
0
 77
2
 78
300
147
1.0
148
0.0
149
0.0
100
AcDbLayout
  1
Model
 70
1
 71
0
 10
-3.175
 20
-3.175
 11
293.857
 21
206.735
 12
0.0
 22
0.0
 32
0.0
 14
29.068
 24
20.356
 34
0.0
 15
261.614
 25
183.204
 35
0.0
146
0.0
 13
0.0
 23
0.0
 33
0.0
 16
1.0
 26
0.0
 36
0.0
 17
0.0
 27
1.0
 37
0.0
 76
1
330
17
  0
LAYOUT
  5
1E
330
D
100
AcDbPlotSettings
  1

  2
Adobe PDF
  4
A4
  6

 40
3.175
 41
3.175
 42
3.175
 43
3.175
 44
209.91
 45
297.03
 46
0.0
 47
0.0
 48
0.0
 49
0.0
140
0.0
141
0.0
142
1.0
143
1.0
 70
688
 72
0
 73
1
 74
5
  7

 75
16
 76
0
 77
2
 78
300
147
1.0
148
0.0
149
0.0
100
AcDbLayout
  1
Layout1
 70
1
 71
1
 10
-3.175
 20
-3.175
 11
293.857
 21
206.735
 12
0.0
 22
0.0
 32
0.0
 14
29.068
 24
20.356
 34
0.0
 15
261.614
 25
183.204
 35
0.0
146
0.0
 13
0.0
 23
0.0
 33
0.0
 16
1.0
 26
0.0
 36
0.0
 17
0.0
 27
1.0
 37
0.0
 76
1
330
1B
  0
MATERIAL
  5
1F
102
{ACAD_REACTORS
330
E
102
}
330
E
100
AcDbMaterial
  1
ByBlock
  2

 70
0
 40
1.0
 71
1
 41
1.0
 91
-1023410177
 42
1.0
 72
1
  3

 73
1
 74
1
 75
1
 44
0.5
 73
0
 45
1.0
 46
1.0
 77
1
  4

 78
1
 79
1
170
1
 48
1.0
171
1
  6

172
1
173
1
174
1
140
1.0
141
1.0
175
1
  7

176
1
177
1
178
1
143
1.0
179
1
  8

270
1
271
1
272
1
145
1.0
146
1.0
273
1
  9

274
1
275
1
276
1
 42
1.0
 72
1
  3

 73
1
 74
1
 75
1
 94
63
  0
MATERIAL
  5
20
102
{ACAD_REACTORS
330
E
102
}
330
E
100
AcDbMaterial
  1
ByLayer
  2

 70
0
 40
1.0
 71
1
 41
1.0
 91
-1023410177
 42
1.0
 72
1
  3

 73
1
 74
1
 75
1
 44
0.5
 73
0
 45
1.0
 46
1.0
 77
1
  4

 78
1
 79
1
170
1
 48
1.0
171
1
  6

172
1
173
1
174
1
140
1.0
141
1.0
175
1
  7

176
1
177
1
178
1
143
1.0
179
1
  8

270
1
271
1
272
1
145
1.0
146
1.0
273
1
  9

274
1
275
1
276
1
 42
1.0
 72
1
  3

 73
1
 74
1
 75
1
 94
63
  0
MATERIAL
  5
21
102
{ACAD_REACTORS
330
E
102
}
330
E
100
AcDbMaterial
  1
Global
  2

 70
0
 40
1.0
 71
1
 41
1.0
 91
-1023410177
 42
1.0
 72
1
  3

 73
1
 74
1
 75
1
 44
0.5
 73
0
 45
1.0
 46
1.0
 77
1
  4

 78
1
 79
1
170
1
 48
1.0
171
1
  6

172
1
173
1
174
1
140
1.0
141
1.0
175
1
  7

176
1
177
1
178
1
143
1.0
179
1
  8

270
1
271
1
272
1
145
1.0
146
1.0
273
1
  9

274
1
275
1
276
1
 42
1.0
 72
1
  3

 73
1
 74
1
 75
1
 94
63
  0
MLINESTYLE
  5
22
102
{ACAD_REACTORS
330
10
102
}
330
10
100
AcDbMlineStyle
 52
90.0
  2
Standard
 51
90.0
 62
256
 70
0
  3

 71
2
 49
0.5
 62
256
  6
BYLAYER
 49
-0.5
 62
256
  6
BYLAYER
  0
MLEADERSTYLE
  5
2C
102
{ACAD_REACTORS
330
F
102
}
330
F
100
AcDbMLeaderStyle
 92
-2
 46
4.0
142
1.0
 44
4.0
173
1
294
1
143
3.75
 40
0.0
141
0.0
271
0
140
1.0
176
0
296
0
272
9
292
0
170
2
174
1
 45
4.0
 94
-1056964608
 41
0.0
 42
2.0
 93
-1056964608
300

177
0
297
0
 91
-1056964608
 43
8.0
 90
2
179
2
172
0
  3
Standard
175
1
 47
1.0
272
9
342
29
171
1
295
0
178
1
291
1
290
1
 49
0.0
  0
ENDSEC
  0
EOF
