%TF.GenerationSoftware,KiCad,Pcbnew,9.0.5*%
%TF.CreationDate,2025-12-15T15:35:18+02:00*%
%TF.ProjectId,FAN CONTROLLER,46414e20-434f-44e5-9452-4f4c4c45522e,V 1*%
%TF.SameCoordinates,Original*%
%TF.FileFunction,Copper,L2,Bot*%
%TF.FilePolarity,Positive*%
%FSLAX46Y46*%
G04 Gerber Fmt 4.6, Leading zero omitted, Abs format (unit mm)*
G04 Created by KiCad (PCBNEW 9.0.5) date 2025-12-15 15:35:18*
%MOMM*%
%LPD*%
G01*
G04 APERTURE LIST*
G04 Aperture macros list*
%AMRoundRect*
0 Rectangle with rounded corners*
0 $1 Rounding radius*
0 $2 $3 $4 $5 $6 $7 $8 $9 X,Y pos of 4 corners*
0 Add a 4 corners polygon primitive as box body*
4,1,4,$2,$3,$4,$5,$6,$7,$8,$9,$2,$3,0*
0 Add four circle primitives for the rounded corners*
1,1,$1+$1,$2,$3*
1,1,$1+$1,$4,$5*
1,1,$1+$1,$6,$7*
1,1,$1+$1,$8,$9*
0 Add four rect primitives between the rounded corners*
20,1,$1+$1,$2,$3,$4,$5,0*
20,1,$1+$1,$4,$5,$6,$7,0*
20,1,$1+$1,$6,$7,$8,$9,0*
20,1,$1+$1,$8,$9,$2,$3,0*%
G04 Aperture macros list end*
%TA.AperFunction,ComponentPad*%
%ADD10R,1.800000X1.800000*%
%TD*%
%TA.AperFunction,ComponentPad*%
%ADD11C,1.800000*%
%TD*%
%TA.AperFunction,ComponentPad*%
%ADD12R,1.700000X1.700000*%
%TD*%
%TA.AperFunction,ComponentPad*%
%ADD13C,1.700000*%
%TD*%
%TA.AperFunction,ComponentPad*%
%ADD14C,1.400000*%
%TD*%
%TA.AperFunction,ComponentPad*%
%ADD15RoundRect,0.250000X0.750000X0.750000X-0.750000X0.750000X-0.750000X-0.750000X0.750000X-0.750000X0*%
%TD*%
%TA.AperFunction,ComponentPad*%
%ADD16C,2.000000*%
%TD*%
%TA.AperFunction,ComponentPad*%
%ADD17RoundRect,0.250000X-0.750000X-0.750000X0.750000X-0.750000X0.750000X0.750000X-0.750000X0.750000X0*%
%TD*%
%TA.AperFunction,ComponentPad*%
%ADD18RoundRect,0.250000X-0.550000X-0.550000X0.550000X-0.550000X0.550000X0.550000X-0.550000X0.550000X0*%
%TD*%
%TA.AperFunction,ComponentPad*%
%ADD19C,1.600000*%
%TD*%
%TA.AperFunction,ComponentPad*%
%ADD20RoundRect,0.249999X-0.850001X-0.850001X0.850001X-0.850001X0.850001X0.850001X-0.850001X0.850001X0*%
%TD*%
%TA.AperFunction,ComponentPad*%
%ADD21C,2.200000*%
%TD*%
%TA.AperFunction,ComponentPad*%
%ADD22R,2.000000X1.905000*%
%TD*%
%TA.AperFunction,ComponentPad*%
%ADD23O,2.000000X1.905000*%
%TD*%
%TA.AperFunction,ComponentPad*%
%ADD24C,1.440000*%
%TD*%
%TA.AperFunction,ViaPad*%
%ADD25C,0.800000*%
%TD*%
%TA.AperFunction,Conductor*%
%ADD26C,0.800000*%
%TD*%
G04 APERTURE END LIST*
D10*
%TO.P,D1,1,K*%
%TO.N,Net-(D1-K)*%
X91040000Y-109580000D03*
D11*
%TO.P,D1,2,A*%
%TO.N,Net-(D1-A)*%
X93580000Y-109580000D03*
%TD*%
D12*
%TO.P,J2,1,Pin_1*%
%TO.N,Net-(J2-Pin_1)*%
X114195000Y-103305000D03*
D13*
%TO.P,J2,2,Pin_2*%
%TO.N,Net-(D2-K)*%
X114195000Y-105845000D03*
%TD*%
D14*
%TO.P,F1,1*%
%TO.N,Net-(J1-Pin_1)*%
X68480000Y-88780000D03*
%TO.P,F1,2*%
%TO.N,Net-(D2-K)*%
X73580000Y-90580000D03*
%TD*%
D15*
%TO.P,C1,1*%
%TO.N,Net-(U1-THR)*%
X83080000Y-120580000D03*
D16*
%TO.P,C1,2*%
%TO.N,Net-(D1-K)*%
X68080000Y-120580000D03*
%TD*%
D14*
%TO.P,R2,1*%
%TO.N,Net-(U1-Q)*%
X99580000Y-117580000D03*
%TO.P,R2,2*%
%TO.N,Net-(D1-A)*%
X91960000Y-117580000D03*
%TD*%
D17*
%TO.P,C2,1*%
%TO.N,Net-(U1-CV)*%
X87080000Y-88580000D03*
D16*
%TO.P,C2,2*%
%TO.N,Earth*%
X102080000Y-88580000D03*
%TD*%
D18*
%TO.P,C3,1*%
%TO.N,Net-(D2-K)*%
X105580000Y-103580000D03*
D19*
%TO.P,C3,2*%
%TO.N,Net-(J2-Pin_1)*%
X107580000Y-103580000D03*
%TD*%
D20*
%TO.P,D2,1,K*%
%TO.N,Net-(D2-K)*%
X112420000Y-87580000D03*
D21*
%TO.P,D2,2,A*%
%TO.N,Net-(D2-A)*%
X122580000Y-87580000D03*
%TD*%
D14*
%TO.P,R3,1*%
%TO.N,Net-(U1-Q)*%
X91770000Y-121890000D03*
%TO.P,R3,2*%
%TO.N,Net-(Q1-G)*%
X99390000Y-121890000D03*
%TD*%
%TO.P,R1,1*%
%TO.N,Net-(D2-K)*%
X81580000Y-85960000D03*
%TO.P,R1,2*%
%TO.N,Net-(U1-DIS)*%
X81580000Y-93580000D03*
%TD*%
D22*
%TO.P,Q1,1,G*%
%TO.N,Net-(Q1-G)*%
X122580000Y-119580000D03*
D23*
%TO.P,Q1,2,D*%
%TO.N,Net-(D2-A)*%
X122580000Y-117040000D03*
%TO.P,Q1,3,S*%
%TO.N,Net-(D1-K)*%
X122580000Y-114500000D03*
%TD*%
D24*
%TO.P,RV1,1,1*%
%TO.N,Net-(U1-THR)*%
X81580000Y-102580000D03*
%TO.P,RV1,2,2*%
X81580000Y-105120000D03*
%TO.P,RV1,3,3*%
%TO.N,Net-(U1-DIS)*%
X81580000Y-107660000D03*
%TD*%
D12*
%TO.P,J1,1,Pin_1*%
%TO.N,Net-(J1-Pin_1)*%
X73965000Y-105855000D03*
D13*
%TO.P,J1,2,Pin_2*%
%TO.N,Net-(D1-K)*%
X73965000Y-103315000D03*
%TD*%
D25*
%TO.N,Net-(U1-THR)*%
X91611956Y-94548044D03*
%TD*%
D26*
%TO.N,Net-(U1-THR)*%
X91611956Y-94548044D02*
X89611956Y-94548044D01*
X89611956Y-94548044D02*
X81580000Y-102580000D01*
%TD*%
%TA.AperFunction,Conductor*%
%TO.N,GND*%
G36*
X129442539Y-80520185D02*
G01*
X129488294Y-80572989D01*
X129499500Y-80624500D01*
X129499500Y-129375500D01*
X129479815Y-129442539D01*
X129427011Y-129488294D01*
X129375500Y-129499500D01*
X60624500Y-129499500D01*
X60557461Y-129479815D01*
X60511706Y-129427011D01*
X60500500Y-129375500D01*
X60500500Y-120461902D01*
X66579500Y-120461902D01*
X66579500Y-120698097D01*
X66616446Y-120931368D01*
X66689433Y-121155996D01*
X66796657Y-121366433D01*
X66935483Y-121557510D01*
X67102490Y-121724517D01*
X67293567Y-121863343D01*
X67392991Y-121914002D01*
X67504003Y-121970566D01*
X67504005Y-121970566D01*
X67504008Y-121970568D01*
X67624412Y-122009689D01*
X67728631Y-122043553D01*
X67961903Y-122080500D01*
X67961908Y-122080500D01*
X68198097Y-122080500D01*
X68431368Y-122043553D01*
X68655992Y-121970568D01*
X68866433Y-121863343D01*
X69057510Y-121724517D01*
X69224517Y-121557510D01*
X69363343Y-121366433D01*
X69470568Y-121155992D01*
X69543553Y-120931368D01*
X69550098Y-120890044D01*
X69580500Y-120698097D01*
X69580500Y-120461902D01*
X69543553Y-120228631D01*
X69470566Y-120004003D01*
X69383501Y-119833129D01*
X69383500Y-119833125D01*
X69363346Y-119793571D01*
X69355407Y-119782644D01*
X69353474Y-119779983D01*
X81579500Y-119779983D01*
X81579500Y-121380001D01*
X81579501Y-121380018D01*
X81590000Y-121482796D01*
X81590001Y-121482799D01*
X81645185Y-121649331D01*
X81645186Y-121649334D01*
X81737288Y-121798656D01*
X81861344Y-121922712D01*
X82010666Y-122014814D01*
X82177203Y-122069999D01*
X82279991Y-122080500D01*
X83880008Y-122080499D01*
X83982797Y-122069999D01*
X84149334Y-122014814D01*
X84298656Y-121922712D01*
X84422712Y-121798656D01*
X84424651Y-121795513D01*
X90569500Y-121795513D01*
X90569500Y-121984486D01*
X90599059Y-122171118D01*
X90657454Y-122350836D01*
X90743240Y-122519199D01*
X90854310Y-122672073D01*
X90987927Y-122805690D01*
X91140801Y-122916760D01*
X91220347Y-122957290D01*
X91309163Y-123002545D01*
X91309165Y-123002545D01*
X91309168Y-123002547D01*
X91405497Y-123033846D01*
X91488881Y-123060940D01*
X91675514Y-123090500D01*
X91675519Y-123090500D01*
X91864486Y-123090500D01*
X92051118Y-123060940D01*
X92230832Y-123002547D01*
X92399199Y-122916760D01*
X92552073Y-122805690D01*
X92685690Y-122672073D01*
X92796760Y-122519199D01*
X92882547Y-122350832D01*
X92940940Y-122171118D01*
X92970500Y-121984486D01*
X92970500Y-121795513D01*
X98189500Y-121795513D01*
X98189500Y-121984486D01*
X98219059Y-122171118D01*
X98277454Y-122350836D01*
X98363240Y-122519199D01*
X98474310Y-122672073D01*
X98607927Y-122805690D01*
X98760801Y-122916760D01*
X98840347Y-122957290D01*
X98929163Y-123002545D01*
X98929165Y-123002545D01*
X98929168Y-123002547D01*
X99025497Y-123033846D01*
X99108881Y-123060940D01*
X99295514Y-123090500D01*
X99295519Y-123090500D01*
X99484486Y-123090500D01*
X99671118Y-123060940D01*
X99850832Y-123002547D01*
X100019199Y-122916760D01*
X100172073Y-122805690D01*
X100305690Y-122672073D01*
X100416760Y-122519199D01*
X100502547Y-122350832D01*
X100560940Y-122171118D01*
X100590500Y-121984486D01*
X100590500Y-121795513D01*
X100560940Y-121608881D01*
X100519972Y-121482796D01*
X100502547Y-121429168D01*
X100502545Y-121429165D01*
X100502545Y-121429163D01*
X100416759Y-121260800D01*
X100305690Y-121107927D01*
X100172073Y-120974310D01*
X100019199Y-120863240D01*
X99850836Y-120777454D01*
X99671118Y-120719059D01*
X99484486Y-120689500D01*
X99484481Y-120689500D01*
X99295519Y-120689500D01*
X99295514Y-120689500D01*
X99108881Y-120719059D01*
X98929163Y-120777454D01*
X98760800Y-120863240D01*
X98673579Y-120926610D01*
X98607927Y-120974310D01*
X98607925Y-120974312D01*
X98607924Y-120974312D01*
X98474312Y-121107924D01*
X98474312Y-121107925D01*
X98474310Y-121107927D01*
X98439389Y-121155992D01*
X98363240Y-121260800D01*
X98277454Y-121429163D01*
X98219059Y-121608881D01*
X98189500Y-121795513D01*
X92970500Y-121795513D01*
X92940940Y-121608881D01*
X92899972Y-121482796D01*
X92882547Y-121429168D01*
X92882545Y-121429165D01*
X92882545Y-121429163D01*
X92796759Y-121260800D01*
X92685690Y-121107927D01*
X92552073Y-120974310D01*
X92399199Y-120863240D01*
X92230836Y-120777454D01*
X92051118Y-120719059D01*
X91864486Y-120689500D01*
X91864481Y-120689500D01*
X91675519Y-120689500D01*
X91675514Y-120689500D01*
X91488881Y-120719059D01*
X91309163Y-120777454D01*
X91140800Y-120863240D01*
X91053579Y-120926610D01*
X90987927Y-120974310D01*
X90987925Y-120974312D01*
X90987924Y-120974312D01*
X90854312Y-121107924D01*
X90854312Y-121107925D01*
X90854310Y-121107927D01*
X90819389Y-121155992D01*
X90743240Y-121260800D01*
X90657454Y-121429163D01*
X90599059Y-121608881D01*
X90569500Y-121795513D01*
X84424651Y-121795513D01*
X84514814Y-121649334D01*
X84569999Y-121482797D01*
X84580500Y-121380009D01*
X84580499Y-119779992D01*
X84569999Y-119677203D01*
X84514814Y-119510666D01*
X84422712Y-119361344D01*
X84298656Y-119237288D01*
X84149334Y-119145186D01*
X83982797Y-119090001D01*
X83982795Y-119090000D01*
X83880010Y-119079500D01*
X82279998Y-119079500D01*
X82279981Y-119079501D01*
X82177203Y-119090000D01*
X82177200Y-119090001D01*
X82010668Y-119145185D01*
X82010663Y-119145187D01*
X81861342Y-119237289D01*
X81737289Y-119361342D01*
X81645187Y-119510663D01*
X81645186Y-119510666D01*
X81590001Y-119677203D01*
X81590001Y-119677204D01*
X81590000Y-119677204D01*
X81579500Y-119779983D01*
X69353474Y-119779983D01*
X69224517Y-119602490D01*
X69057510Y-119435483D01*
X68866433Y-119296657D01*
X68655996Y-119189433D01*
X68431368Y-119116446D01*
X68198097Y-119079500D01*
X68198092Y-119079500D01*
X67961908Y-119079500D01*
X67961903Y-119079500D01*
X67728631Y-119116446D01*
X67504003Y-119189433D01*
X67293566Y-119296657D01*
X67204536Y-119361342D01*
X67102490Y-119435483D01*
X67102488Y-119435485D01*
X67102487Y-119435485D01*
X66935485Y-119602487D01*
X66935485Y-119602488D01*
X66935483Y-119602490D01*
X66881203Y-119677200D01*
X66796657Y-119793566D01*
X66689433Y-120004003D01*
X66616446Y-120228631D01*
X66579500Y-120461902D01*
X60500500Y-120461902D01*
X60500500Y-117485513D01*
X90759500Y-117485513D01*
X90759500Y-117674486D01*
X90789059Y-117861118D01*
X90847454Y-118040836D01*
X90920249Y-118183702D01*
X90933240Y-118209199D01*
X91044310Y-118362073D01*
X91177927Y-118495690D01*
X91330801Y-118606760D01*
X91410347Y-118647290D01*
X91499163Y-118692545D01*
X91499165Y-118692545D01*
X91499168Y-118692547D01*
X91595497Y-118723846D01*
X91678881Y-118750940D01*
X91865514Y-118780500D01*
X91865519Y-118780500D01*
X92054486Y-118780500D01*
X92241118Y-118750940D01*
X92420832Y-118692547D01*
X92589199Y-118606760D01*
X92742073Y-118495690D01*
X92875690Y-118362073D01*
X92986760Y-118209199D01*
X93072547Y-118040832D01*
X93130940Y-117861118D01*
X93160500Y-117674486D01*
X93160500Y-117485513D01*
X98379500Y-117485513D01*
X98379500Y-117674486D01*
X98409059Y-117861118D01*
X98467454Y-118040836D01*
X98540249Y-118183702D01*
X98553240Y-118209199D01*
X98664310Y-118362073D01*
X98797927Y-118495690D01*
X98950801Y-118606760D01*
X99030347Y-118647290D01*
X99119163Y-118692545D01*
X99119165Y-118692545D01*
X99119168Y-118692547D01*
X99215497Y-118723846D01*
X99298881Y-118750940D01*
X99485514Y-118780500D01*
X99485519Y-118780500D01*
X99674486Y-118780500D01*
X99861118Y-118750940D01*
X100040832Y-118692547D01*
X100209199Y-118606760D01*
X100362073Y-118495690D01*
X100495690Y-118362073D01*
X100606760Y-118209199D01*
X100692547Y-118040832D01*
X100750940Y-117861118D01*
X100780500Y-117674486D01*
X100780500Y-117485513D01*
X100750940Y-117298881D01*
X100723846Y-117215497D01*
X100692547Y-117119168D01*
X100692545Y-117119165D01*
X100692545Y-117119163D01*
X100606759Y-116950800D01*
X100495690Y-116797927D01*
X100362073Y-116664310D01*
X100209199Y-116553240D01*
X100040836Y-116467454D01*
X99861118Y-116409059D01*
X99674486Y-116379500D01*
X99674481Y-116379500D01*
X99485519Y-116379500D01*
X99485514Y-116379500D01*
X99298881Y-116409059D01*
X99119163Y-116467454D01*
X98950800Y-116553240D01*
X98863579Y-116616610D01*
X98797927Y-116664310D01*
X98797925Y-116664312D01*
X98797924Y-116664312D01*
X98664312Y-116797924D01*
X98664312Y-116797925D01*
X98664310Y-116797927D01*
X98616610Y-116863579D01*
X98553240Y-116950800D01*
X98467454Y-117119163D01*
X98409059Y-117298881D01*
X98379500Y-117485513D01*
X93160500Y-117485513D01*
X93130940Y-117298881D01*
X93103846Y-117215497D01*
X93072547Y-117119168D01*
X93072545Y-117119165D01*
X93072545Y-117119163D01*
X92986759Y-116950800D01*
X92875690Y-116797927D01*
X92742073Y-116664310D01*
X92589199Y-116553240D01*
X92420836Y-116467454D01*
X92241118Y-116409059D01*
X92054486Y-116379500D01*
X92054481Y-116379500D01*
X91865519Y-116379500D01*
X91865514Y-116379500D01*
X91678881Y-116409059D01*
X91499163Y-116467454D01*
X91330800Y-116553240D01*
X91243579Y-116616610D01*
X91177927Y-116664310D01*
X91177925Y-116664312D01*
X91177924Y-116664312D01*
X91044312Y-116797924D01*
X91044312Y-116797925D01*
X91044310Y-116797927D01*
X90996610Y-116863579D01*
X90933240Y-116950800D01*
X90847454Y-117119163D01*
X90789059Y-117298881D01*
X90759500Y-117485513D01*
X60500500Y-117485513D01*
X60500500Y-114385646D01*
X121079500Y-114385646D01*
X121079500Y-114614353D01*
X121115278Y-114840246D01*
X121115278Y-114840249D01*
X121185950Y-115057755D01*
X121185952Y-115057758D01*
X121289783Y-115261538D01*
X121424214Y-115446566D01*
X121585934Y-115608286D01*
X121655423Y-115658773D01*
X121670438Y-115669682D01*
X121713103Y-115725013D01*
X121719082Y-115794626D01*
X121686476Y-115856421D01*
X121670438Y-115870318D01*
X121585932Y-115931715D01*
X121424216Y-116093431D01*
X121424216Y-116093432D01*
X121424214Y-116093434D01*
X121366480Y-116172896D01*
X121289783Y-116278461D01*
X121185950Y-116482244D01*
X121115278Y-116699750D01*
X121115278Y-116699753D01*
X121079500Y-116925646D01*
X121079500Y-117154353D01*
X121115278Y-117380246D01*
X121115278Y-117380249D01*
X121185950Y-117597755D01*
X121185952Y-117597758D01*
X121289783Y-117801538D01*
X121422525Y-117984242D01*
X121446005Y-118050046D01*
X121430180Y-118118100D01*
X121380074Y-118166795D01*
X121365541Y-118173308D01*
X121337670Y-118183703D01*
X121337664Y-118183706D01*
X121222455Y-118269952D01*
X121222452Y-118269955D01*
X121136206Y-118385164D01*
X121136202Y-118385171D01*
X121085908Y-118520017D01*
X121079501Y-118579616D01*
X121079501Y-118579623D01*
X121079500Y-118579635D01*
X121079500Y-120580370D01*
X121079501Y-120580376D01*
X121085908Y-120639983D01*
X121136202Y-120774828D01*
X121136206Y-120774835D01*
X121222452Y-120890044D01*
X121222455Y-120890047D01*
X121337664Y-120976293D01*
X121337671Y-120976297D01*
X121472517Y-121026591D01*
X121472516Y-121026591D01*
X121479444Y-121027335D01*
X121532127Y-121033000D01*
X123627872Y-121032999D01*
X123687483Y-121026591D01*
X123822331Y-120976296D01*
X123937546Y-120890046D01*
X124023796Y-120774831D01*
X124074091Y-120639983D01*
X124080500Y-120580373D01*
X124080499Y-118579628D01*
X124074091Y-118520017D01*
X124023796Y-118385169D01*
X124023795Y-118385168D01*
X124023793Y-118385164D01*
X123937547Y-118269955D01*
X123937544Y-118269952D01*
X123822335Y-118183706D01*
X123822328Y-118183702D01*
X123794459Y-118173308D01*
X123738525Y-118131437D01*
X123714108Y-118065973D01*
X123728960Y-117997700D01*
X123737460Y-117984260D01*
X123870217Y-117801538D01*
X123974048Y-117597758D01*
X124010517Y-117485519D01*
X124044721Y-117380249D01*
X124044721Y-117380248D01*
X124044722Y-117380245D01*
X124080500Y-117154354D01*
X124080500Y-116925646D01*
X124044722Y-116699755D01*
X124044721Y-116699751D01*
X124044721Y-116699750D01*
X123974049Y-116482244D01*
X123870216Y-116278461D01*
X123735786Y-116093434D01*
X123574066Y-115931714D01*
X123489559Y-115870316D01*
X123446896Y-115814988D01*
X123440917Y-115745375D01*
X123473523Y-115683580D01*
X123489556Y-115669685D01*
X123574066Y-115608286D01*
X123735786Y-115446566D01*
X123870217Y-115261538D01*
X123974048Y-115057758D01*
X124044722Y-114840245D01*
X124080500Y-114614354D01*
X124080500Y-114385646D01*
X124044722Y-114159755D01*
X124044721Y-114159751D01*
X124044721Y-114159750D01*
X123974049Y-113942244D01*
X123870216Y-113738461D01*
X123735786Y-113553434D01*
X123574066Y-113391714D01*
X123389038Y-113257283D01*
X123185255Y-113153450D01*
X122967748Y-113082778D01*
X122798326Y-113055944D01*
X122741854Y-113047000D01*
X122418146Y-113047000D01*
X122342849Y-113058926D01*
X122192253Y-113082778D01*
X122192250Y-113082778D01*
X121974744Y-113153450D01*
X121770961Y-113257283D01*
X121665396Y-113333980D01*
X121585934Y-113391714D01*
X121585932Y-113391716D01*
X121585931Y-113391716D01*
X121424216Y-113553431D01*
X121424216Y-113553432D01*
X121424214Y-113553434D01*
X121366480Y-113632896D01*
X121289783Y-113738461D01*
X121185950Y-113942244D01*
X121115278Y-114159750D01*
X121115278Y-114159753D01*
X121079500Y-114385646D01*
X60500500Y-114385646D01*
X60500500Y-103208713D01*
X72614500Y-103208713D01*
X72614500Y-103421286D01*
X72628700Y-103510945D01*
X72647754Y-103631243D01*
X72702749Y-103800500D01*
X72713444Y-103833414D01*
X72809951Y-104022820D01*
X72934890Y-104194786D01*
X73048430Y-104308326D01*
X73081915Y-104369649D01*
X73076931Y-104439341D01*
X73035059Y-104495274D01*
X73004083Y-104512189D01*
X72872669Y-104561203D01*
X72872664Y-104561206D01*
X72757455Y-104647452D01*
X72757452Y-104647455D01*
X72671206Y-104762664D01*
X72671202Y-104762671D01*
X72620908Y-104897517D01*
X72614501Y-104957116D01*
X72614501Y-104957123D01*
X72614500Y-104957135D01*
X72614500Y-106752870D01*
X72614501Y-106752876D01*
X72620908Y-106812483D01*
X72671202Y-106947328D01*
X72671206Y-106947335D01*
X72757452Y-107062544D01*
X72757455Y-107062547D01*
X72872664Y-107148793D01*
X72872671Y-107148797D01*
X73007517Y-107199091D01*
X73007516Y-107199091D01*
X73014444Y-107199835D01*
X73067127Y-107205500D01*
X74862872Y-107205499D01*
X74922483Y-107199091D01*
X75057331Y-107148796D01*
X75172546Y-107062546D01*
X75258796Y-106947331D01*
X75309091Y-106812483D01*
X75315500Y-106752873D01*
X75315499Y-104957128D01*
X75309091Y-104897517D01*
X75302743Y-104880498D01*
X75258797Y-104762671D01*
X75258793Y-104762664D01*
X75172547Y-104647455D01*
X75172544Y-104647452D01*
X75057335Y-104561206D01*
X75057328Y-104561202D01*
X74925917Y-104512189D01*
X74869983Y-104470318D01*
X74845566Y-104404853D01*
X74860418Y-104336580D01*
X74881563Y-104308332D01*
X74995104Y-104194792D01*
X75120051Y-104022816D01*
X75216557Y-103833412D01*
X75282246Y-103631243D01*
X75315500Y-103421287D01*
X75315500Y-103208713D01*
X75282246Y-102998757D01*
X75216557Y-102796588D01*
X75120051Y-102607184D01*
X75106138Y-102588034D01*
X75079928Y-102551958D01*
X75030514Y-102483945D01*
X80359500Y-102483945D01*
X80359500Y-102676055D01*
X80364982Y-102710666D01*
X80389553Y-102865802D01*
X80448916Y-103048506D01*
X80530546Y-103208713D01*
X80536135Y-103219681D01*
X80649055Y-103375102D01*
X80784898Y-103510945D01*
X80940319Y-103623865D01*
X81055104Y-103682351D01*
X81111493Y-103711083D01*
X81176081Y-103732069D01*
X81233756Y-103771506D01*
X81260955Y-103835865D01*
X81249041Y-103904711D01*
X81201797Y-103956187D01*
X81176081Y-103967931D01*
X81111493Y-103988916D01*
X80940318Y-104076135D01*
X80851645Y-104140560D01*
X80784898Y-104189055D01*
X80784896Y-104189057D01*
X80784895Y-104189057D01*
X80649057Y-104324895D01*
X80649057Y-104324896D01*
X80649055Y-104324898D01*
X80600560Y-104391645D01*
X80536135Y-104480318D01*
X80448916Y-104651493D01*
X80389553Y-104834197D01*
X80359500Y-105023945D01*
X80359500Y-105216054D01*
X80389553Y-105405802D01*
X80448916Y-105588506D01*
X80448918Y-105588509D01*
X80536135Y-105759681D01*
X80649055Y-105915102D01*
X80784898Y-106050945D01*
X80940319Y-106163865D01*
X81111491Y-106251082D01*
X81111493Y-106251083D01*
X81176081Y-106272069D01*
X81233756Y-106311506D01*
X81260955Y-106375865D01*
X81249041Y-106444711D01*
X81201797Y-106496187D01*
X81176081Y-106507931D01*
X81111493Y-106528916D01*
X80940318Y-106616135D01*
X80851645Y-106680560D01*
X80784898Y-106729055D01*
X80784896Y-106729057D01*
X80784895Y-106729057D01*
X80649057Y-106864895D01*
X80649057Y-106864896D01*
X80649055Y-106864898D01*
X80600560Y-106931645D01*
X80536135Y-107020318D01*
X80448916Y-107191493D01*
X80389553Y-107374197D01*
X80359500Y-107563945D01*
X80359500Y-107756054D01*
X80389553Y-107945802D01*
X80448916Y-108128506D01*
X80536135Y-108299681D01*
X80649055Y-108455102D01*
X80784898Y-108590945D01*
X80940319Y-108703865D01*
X81061706Y-108765715D01*
X81111493Y-108791083D01*
X81202845Y-108820764D01*
X81294199Y-108850447D01*
X81483945Y-108880500D01*
X81483946Y-108880500D01*
X81676054Y-108880500D01*
X81676055Y-108880500D01*
X81865801Y-108850447D01*
X82048509Y-108791082D01*
X82219681Y-108703865D01*
X82318409Y-108632135D01*
X89639500Y-108632135D01*
X89639500Y-110527870D01*
X89639501Y-110527876D01*
X89645908Y-110587483D01*
X89696202Y-110722328D01*
X89696206Y-110722335D01*
X89782452Y-110837544D01*
X89782455Y-110837547D01*
X89897664Y-110923793D01*
X89897671Y-110923797D01*
X90032517Y-110974091D01*
X90032516Y-110974091D01*
X90039444Y-110974835D01*
X90092127Y-110980500D01*
X91987872Y-110980499D01*
X92047483Y-110974091D01*
X92182331Y-110923796D01*
X92297546Y-110837546D01*
X92383796Y-110722331D01*
X92411429Y-110648243D01*
X92413601Y-110642420D01*
X92455471Y-110586486D01*
X92520936Y-110562068D01*
X92589209Y-110576919D01*
X92617464Y-110598071D01*
X92667636Y-110648243D01*
X92667641Y-110648247D01*
X92769603Y-110722326D01*
X92845978Y-110777815D01*
X92974375Y-110843237D01*
X93042393Y-110877895D01*
X93042396Y-110877896D01*
X93147221Y-110911955D01*
X93252049Y-110946015D01*
X93469778Y-110980500D01*
X93469779Y-110980500D01*
X93690221Y-110980500D01*
X93690222Y-110980500D01*
X93907951Y-110946015D01*
X94117606Y-110877895D01*
X94314022Y-110777815D01*
X94492365Y-110648242D01*
X94648242Y-110492365D01*
X94777815Y-110314022D01*
X94877895Y-110117606D01*
X94946015Y-109907951D01*
X94980500Y-109690222D01*
X94980500Y-109469778D01*
X94946015Y-109252049D01*
X94877895Y-109042394D01*
X94877895Y-109042393D01*
X94843237Y-108974375D01*
X94777815Y-108845978D01*
X94719501Y-108765715D01*
X94648247Y-108667641D01*
X94648243Y-108667636D01*
X94492363Y-108511756D01*
X94492358Y-108511752D01*
X94314025Y-108382187D01*
X94314024Y-108382186D01*
X94314022Y-108382185D01*
X94196791Y-108322452D01*
X94117606Y-108282104D01*
X94117603Y-108282103D01*
X93907952Y-108213985D01*
X93799086Y-108196742D01*
X93690222Y-108179500D01*
X93469778Y-108179500D01*
X93397201Y-108190995D01*
X93252047Y-108213985D01*
X93042396Y-108282103D01*
X93042393Y-108282104D01*
X92845974Y-108382187D01*
X92667641Y-108511752D01*
X92667636Y-108511756D01*
X92617463Y-108561929D01*
X92556140Y-108595413D01*
X92486448Y-108590428D01*
X92430515Y-108548557D01*
X92413601Y-108517580D01*
X92383797Y-108437671D01*
X92383793Y-108437664D01*
X92297547Y-108322455D01*
X92297544Y-108322452D01*
X92182335Y-108236206D01*
X92182328Y-108236202D01*
X92047482Y-108185908D01*
X92047483Y-108185908D01*
X91987883Y-108179501D01*
X91987881Y-108179500D01*
X91987873Y-108179500D01*
X91987864Y-108179500D01*
X90092129Y-108179500D01*
X90092123Y-108179501D01*
X90032516Y-108185908D01*
X89897671Y-108236202D01*
X89897664Y-108236206D01*
X89782455Y-108322452D01*
X89782452Y-108322455D01*
X89696206Y-108437664D01*
X89696202Y-108437671D01*
X89645908Y-108572517D01*
X89639501Y-108632116D01*
X89639500Y-108632135D01*
X82318409Y-108632135D01*
X82375102Y-108590945D01*
X82510945Y-108455102D01*
X82623865Y-108299681D01*
X82711082Y-108128509D01*
X82770447Y-107945801D01*
X82800500Y-107756055D01*
X82800500Y-107563945D01*
X82770447Y-107374199D01*
X82715634Y-107205500D01*
X82711083Y-107191493D01*
X82645381Y-107062547D01*
X82623865Y-107020319D01*
X82510945Y-106864898D01*
X82375102Y-106729055D01*
X82219681Y-106616135D01*
X82048504Y-106528915D01*
X81983919Y-106507931D01*
X81926243Y-106468494D01*
X81899044Y-106404136D01*
X81910958Y-106335289D01*
X81958202Y-106283813D01*
X81983919Y-106272069D01*
X82048504Y-106251084D01*
X82048506Y-106251082D01*
X82048509Y-106251082D01*
X82219681Y-106163865D01*
X82375102Y-106050945D01*
X82510945Y-105915102D01*
X82623865Y-105759681D01*
X82711082Y-105588509D01*
X82770447Y-105405801D01*
X82800500Y-105216055D01*
X82800500Y-105023945D01*
X82770447Y-104834199D01*
X82733556Y-104720658D01*
X82711083Y-104651493D01*
X82684231Y-104598793D01*
X82623865Y-104480319D01*
X82510945Y-104324898D01*
X82375102Y-104189055D01*
X82219681Y-104076135D01*
X82048504Y-103988915D01*
X81983919Y-103967931D01*
X81926243Y-103928494D01*
X81899044Y-103864136D01*
X81910958Y-103795289D01*
X81958202Y-103743813D01*
X81983919Y-103732069D01*
X82048504Y-103711084D01*
X82048506Y-103711082D01*
X82048509Y-103711082D01*
X82219681Y-103623865D01*
X82375102Y-103510945D01*
X82510945Y-103375102D01*
X82623865Y-103219681D01*
X82711082Y-103048509D01*
X82733345Y-102979991D01*
X82733348Y-102979983D01*
X104279500Y-102979983D01*
X104279500Y-104180001D01*
X104279501Y-104180018D01*
X104290000Y-104282796D01*
X104290001Y-104282799D01*
X104345185Y-104449331D01*
X104345187Y-104449336D01*
X104373522Y-104495274D01*
X104437288Y-104598656D01*
X104561344Y-104722712D01*
X104710666Y-104814814D01*
X104877203Y-104869999D01*
X104979991Y-104880500D01*
X106180008Y-104880499D01*
X106282797Y-104869999D01*
X106449334Y-104814814D01*
X106598656Y-104722712D01*
X106667524Y-104653843D01*
X106728843Y-104620361D01*
X106798535Y-104625345D01*
X106828082Y-104641206D01*
X106898390Y-104692287D01*
X106984561Y-104736193D01*
X107080776Y-104785218D01*
X107080778Y-104785218D01*
X107080781Y-104785220D01*
X107096570Y-104790350D01*
X107275465Y-104848477D01*
X107295644Y-104851673D01*
X107477648Y-104880500D01*
X107477649Y-104880500D01*
X107682351Y-104880500D01*
X107682352Y-104880500D01*
X107884534Y-104848477D01*
X108079219Y-104785220D01*
X108261610Y-104692287D01*
X108354590Y-104624732D01*
X108427213Y-104571971D01*
X108427215Y-104571968D01*
X108427219Y-104571966D01*
X108571966Y-104427219D01*
X108571968Y-104427215D01*
X108571971Y-104427213D01*
X108624732Y-104354590D01*
X108692287Y-104261610D01*
X108785220Y-104079219D01*
X108848477Y-103884534D01*
X108880500Y-103682352D01*
X108880500Y-103477648D01*
X108848477Y-103275466D01*
X108785220Y-103080781D01*
X108785218Y-103080778D01*
X108785218Y-103080776D01*
X108743428Y-102998760D01*
X108692287Y-102898390D01*
X108668610Y-102865801D01*
X108571971Y-102732786D01*
X108427213Y-102588028D01*
X108311727Y-102504124D01*
X108261613Y-102467715D01*
X108261612Y-102467714D01*
X108261610Y-102467713D01*
X108197825Y-102435213D01*
X108142720Y-102407135D01*
X112844500Y-102407135D01*
X112844500Y-104202870D01*
X112844501Y-104202876D01*
X112850908Y-104262483D01*
X112901202Y-104397328D01*
X112901206Y-104397335D01*
X112987452Y-104512544D01*
X112987455Y-104512547D01*
X113102664Y-104598793D01*
X113102671Y-104598797D01*
X113234082Y-104647810D01*
X113290016Y-104689681D01*
X113314433Y-104755145D01*
X113299582Y-104823418D01*
X113278431Y-104851673D01*
X113164889Y-104965215D01*
X113039951Y-105137179D01*
X112943444Y-105326585D01*
X112877753Y-105528760D01*
X112868290Y-105588509D01*
X112844500Y-105738713D01*
X112844500Y-105951287D01*
X112877754Y-106161243D01*
X112935998Y-106340500D01*
X112943444Y-106363414D01*
X113039951Y-106552820D01*
X113164890Y-106724786D01*
X113315213Y-106875109D01*
X113487179Y-107000048D01*
X113487181Y-107000049D01*
X113487184Y-107000051D01*
X113676588Y-107096557D01*
X113878757Y-107162246D01*
X114088713Y-107195500D01*
X114088714Y-107195500D01*
X114301286Y-107195500D01*
X114301287Y-107195500D01*
X114511243Y-107162246D01*
X114713412Y-107096557D01*
X114902816Y-107000051D01*
X114975374Y-106947335D01*
X115074786Y-106875109D01*
X115074788Y-106875106D01*
X115074792Y-106875104D01*
X115225104Y-106724792D01*
X115225106Y-106724788D01*
X115225109Y-106724786D01*
X115350048Y-106552820D01*
X115350047Y-106552820D01*
X115350051Y-106552816D01*
X115446557Y-106363412D01*
X115512246Y-106161243D01*
X115545500Y-105951287D01*
X115545500Y-105738713D01*
X115512246Y-105528757D01*
X115446557Y-105326588D01*
X115350051Y-105137184D01*
X115350049Y-105137181D01*
X115350048Y-105137179D01*
X115225109Y-104965213D01*
X115111569Y-104851673D01*
X115078084Y-104790350D01*
X115083068Y-104720658D01*
X115124940Y-104664725D01*
X115155915Y-104647810D01*
X115287331Y-104598796D01*
X115402546Y-104512546D01*
X115488796Y-104397331D01*
X115539091Y-104262483D01*
X115545500Y-104202873D01*
X115545499Y-102407128D01*
X115539091Y-102347517D01*
X115538221Y-102345185D01*
X115488797Y-102212671D01*
X115488793Y-102212664D01*
X115402547Y-102097455D01*
X115402544Y-102097452D01*
X115287335Y-102011206D01*
X115287328Y-102011202D01*
X115152482Y-101960908D01*
X115152483Y-101960908D01*
X115092883Y-101954501D01*
X115092881Y-101954500D01*
X115092873Y-101954500D01*
X115092864Y-101954500D01*
X113297129Y-101954500D01*
X113297123Y-101954501D01*
X113237516Y-101960908D01*
X113102671Y-102011202D01*
X113102664Y-102011206D01*
X112987455Y-102097452D01*
X112987452Y-102097455D01*
X112901206Y-102212664D01*
X112901202Y-102212671D01*
X112850908Y-102347517D01*
X112844501Y-102407116D01*
X112844501Y-102407123D01*
X112844500Y-102407135D01*
X108142720Y-102407135D01*
X108079223Y-102374781D01*
X107884534Y-102311522D01*
X107709995Y-102283878D01*
X107682352Y-102279500D01*
X107477648Y-102279500D01*
X107453329Y-102283351D01*
X107275465Y-102311522D01*
X107080776Y-102374781D01*
X106898391Y-102467712D01*
X106898383Y-102467717D01*
X106828085Y-102518790D01*
X106762279Y-102542269D01*
X106694225Y-102526442D01*
X106667521Y-102506153D01*
X106645313Y-102483945D01*
X106598656Y-102437288D01*
X106523995Y-102391237D01*
X106449336Y-102345187D01*
X106449331Y-102345185D01*
X106447862Y-102344698D01*
X106282797Y-102290001D01*
X106282795Y-102290000D01*
X106180010Y-102279500D01*
X104979998Y-102279500D01*
X104979981Y-102279501D01*
X104877203Y-102290000D01*
X104877200Y-102290001D01*
X104710668Y-102345185D01*
X104710663Y-102345187D01*
X104561342Y-102437289D01*
X104437289Y-102561342D01*
X104345187Y-102710663D01*
X104345186Y-102710666D01*
X104290001Y-102877203D01*
X104290001Y-102877204D01*
X104290000Y-102877204D01*
X104279500Y-102979983D01*
X82733348Y-102979983D01*
X82746821Y-102938516D01*
X82759858Y-102898390D01*
X82770447Y-102865801D01*
X82800500Y-102676055D01*
X82800500Y-102676035D01*
X82800588Y-102674928D01*
X82800742Y-102674522D01*
X82801262Y-102671243D01*
X82801950Y-102671352D01*
X82825471Y-102609639D01*
X82836518Y-102596981D01*
X89948637Y-95484863D01*
X90009960Y-95451378D01*
X90036318Y-95448544D01*
X91700649Y-95448544D01*
X91700650Y-95448543D01*
X91758638Y-95437008D01*
X91874614Y-95413940D01*
X91874617Y-95413938D01*
X91874622Y-95413938D01*
X92038503Y-95346057D01*
X92185991Y-95247508D01*
X92311420Y-95122079D01*
X92409969Y-94974591D01*
X92477850Y-94810710D01*
X92512456Y-94636735D01*
X92512456Y-94459353D01*
X92512456Y-94459350D01*
X92512455Y-94459348D01*
X92477852Y-94285385D01*
X92477849Y-94285376D01*
X92409972Y-94121503D01*
X92409965Y-94121490D01*
X92311420Y-93974009D01*
X92311417Y-93974005D01*
X92185994Y-93848582D01*
X92185990Y-93848579D01*
X92038509Y-93750034D01*
X92038496Y-93750027D01*
X91874623Y-93682150D01*
X91874614Y-93682147D01*
X91700650Y-93647544D01*
X91700647Y-93647544D01*
X89700648Y-93647544D01*
X89523264Y-93647544D01*
X89523259Y-93647544D01*
X89349297Y-93682147D01*
X89349285Y-93682150D01*
X89267348Y-93716089D01*
X89267349Y-93716090D01*
X89185411Y-93750029D01*
X89096996Y-93809107D01*
X89096995Y-93809108D01*
X89037917Y-93848581D01*
X89037916Y-93848582D01*
X81563025Y-101323474D01*
X81501702Y-101356959D01*
X81485093Y-101359409D01*
X81483952Y-101359498D01*
X81294197Y-101389553D01*
X81111493Y-101448916D01*
X80940318Y-101536135D01*
X80851645Y-101600560D01*
X80784898Y-101649055D01*
X80784896Y-101649057D01*
X80784895Y-101649057D01*
X80649057Y-101784895D01*
X80649057Y-101784896D01*
X80649055Y-101784898D01*
X80600560Y-101851645D01*
X80536135Y-101940318D01*
X80448916Y-102111493D01*
X80389553Y-102294197D01*
X80367219Y-102435208D01*
X80359500Y-102483945D01*
X75030514Y-102483945D01*
X74995109Y-102435213D01*
X74844786Y-102284890D01*
X74672820Y-102159951D01*
X74483414Y-102063444D01*
X74483413Y-102063443D01*
X74483412Y-102063443D01*
X74281243Y-101997754D01*
X74281241Y-101997753D01*
X74281240Y-101997753D01*
X74119957Y-101972208D01*
X74071287Y-101964500D01*
X73858713Y-101964500D01*
X73810042Y-101972208D01*
X73648760Y-101997753D01*
X73446585Y-102063444D01*
X73257179Y-102159951D01*
X73085213Y-102284890D01*
X72934890Y-102435213D01*
X72809951Y-102607179D01*
X72713444Y-102796585D01*
X72647753Y-102998760D01*
X72614500Y-103208713D01*
X60500500Y-103208713D01*
X60500500Y-93485513D01*
X80379500Y-93485513D01*
X80379500Y-93674486D01*
X80409059Y-93861118D01*
X80467454Y-94040836D01*
X80553240Y-94209199D01*
X80664310Y-94362073D01*
X80797927Y-94495690D01*
X80950801Y-94606760D01*
X81030347Y-94647290D01*
X81119163Y-94692545D01*
X81119165Y-94692545D01*
X81119168Y-94692547D01*
X81215497Y-94723846D01*
X81298881Y-94750940D01*
X81485514Y-94780500D01*
X81485519Y-94780500D01*
X81674486Y-94780500D01*
X81861118Y-94750940D01*
X82040832Y-94692547D01*
X82209199Y-94606760D01*
X82362073Y-94495690D01*
X82495690Y-94362073D01*
X82606760Y-94209199D01*
X82692547Y-94040832D01*
X82750940Y-93861118D01*
X82780500Y-93674486D01*
X82780500Y-93485513D01*
X82750940Y-93298881D01*
X82692545Y-93119163D01*
X82606759Y-92950800D01*
X82495690Y-92797927D01*
X82362073Y-92664310D01*
X82209199Y-92553240D01*
X82040836Y-92467454D01*
X81861118Y-92409059D01*
X81674486Y-92379500D01*
X81674481Y-92379500D01*
X81485519Y-92379500D01*
X81485514Y-92379500D01*
X81298881Y-92409059D01*
X81119163Y-92467454D01*
X80950800Y-92553240D01*
X80863579Y-92616610D01*
X80797927Y-92664310D01*
X80797925Y-92664312D01*
X80797924Y-92664312D01*
X80664312Y-92797924D01*
X80664312Y-92797925D01*
X80664310Y-92797927D01*
X80616610Y-92863579D01*
X80553240Y-92950800D01*
X80467454Y-93119163D01*
X80409059Y-93298881D01*
X80379500Y-93485513D01*
X60500500Y-93485513D01*
X60500500Y-90485513D01*
X72379500Y-90485513D01*
X72379500Y-90674486D01*
X72409059Y-90861118D01*
X72467454Y-91040836D01*
X72553240Y-91209199D01*
X72664310Y-91362073D01*
X72797927Y-91495690D01*
X72950801Y-91606760D01*
X73030347Y-91647290D01*
X73119163Y-91692545D01*
X73119165Y-91692545D01*
X73119168Y-91692547D01*
X73215497Y-91723846D01*
X73298881Y-91750940D01*
X73485514Y-91780500D01*
X73485519Y-91780500D01*
X73674486Y-91780500D01*
X73861118Y-91750940D01*
X74040832Y-91692547D01*
X74209199Y-91606760D01*
X74362073Y-91495690D01*
X74495690Y-91362073D01*
X74606760Y-91209199D01*
X74692547Y-91040832D01*
X74750940Y-90861118D01*
X74780500Y-90674486D01*
X74780500Y-90485513D01*
X74750940Y-90298881D01*
X74692545Y-90119163D01*
X74621892Y-89980500D01*
X74606760Y-89950801D01*
X74495690Y-89797927D01*
X74362073Y-89664310D01*
X74209199Y-89553240D01*
X74040836Y-89467454D01*
X73861118Y-89409059D01*
X73674486Y-89379500D01*
X73674481Y-89379500D01*
X73485519Y-89379500D01*
X73485514Y-89379500D01*
X73298881Y-89409059D01*
X73119163Y-89467454D01*
X72950800Y-89553240D01*
X72863579Y-89616610D01*
X72797927Y-89664310D01*
X72797925Y-89664312D01*
X72797924Y-89664312D01*
X72664312Y-89797924D01*
X72664312Y-89797925D01*
X72664310Y-89797927D01*
X72616783Y-89863342D01*
X72553240Y-89950800D01*
X72467454Y-90119163D01*
X72409059Y-90298881D01*
X72379500Y-90485513D01*
X60500500Y-90485513D01*
X60500500Y-88685513D01*
X67279500Y-88685513D01*
X67279500Y-88874486D01*
X67309059Y-89061118D01*
X67367454Y-89240836D01*
X67453169Y-89409059D01*
X67453240Y-89409199D01*
X67564310Y-89562073D01*
X67697927Y-89695690D01*
X67850801Y-89806760D01*
X67930347Y-89847290D01*
X68019163Y-89892545D01*
X68019165Y-89892545D01*
X68019168Y-89892547D01*
X68112000Y-89922710D01*
X68198881Y-89950940D01*
X68385514Y-89980500D01*
X68385519Y-89980500D01*
X68574486Y-89980500D01*
X68761118Y-89950940D01*
X68761549Y-89950800D01*
X68940832Y-89892547D01*
X69109199Y-89806760D01*
X69262073Y-89695690D01*
X69395690Y-89562073D01*
X69506760Y-89409199D01*
X69592547Y-89240832D01*
X69650940Y-89061118D01*
X69657023Y-89022710D01*
X69680500Y-88874486D01*
X69680500Y-88685513D01*
X69650940Y-88498881D01*
X69592545Y-88319163D01*
X69506759Y-88150800D01*
X69395690Y-87997927D01*
X69262073Y-87864310D01*
X69146007Y-87779983D01*
X85579500Y-87779983D01*
X85579500Y-89380001D01*
X85579501Y-89380018D01*
X85590000Y-89482796D01*
X85590001Y-89482799D01*
X85616271Y-89562075D01*
X85645186Y-89649334D01*
X85737288Y-89798656D01*
X85861344Y-89922712D01*
X86010666Y-90014814D01*
X86177203Y-90069999D01*
X86279991Y-90080500D01*
X87880008Y-90080499D01*
X87982797Y-90069999D01*
X88149334Y-90014814D01*
X88298656Y-89922712D01*
X88422712Y-89798656D01*
X88514814Y-89649334D01*
X88569999Y-89482797D01*
X88580500Y-89380009D01*
X88580499Y-88461902D01*
X100579500Y-88461902D01*
X100579500Y-88698097D01*
X100616446Y-88931368D01*
X100689433Y-89155996D01*
X100701919Y-89180500D01*
X100796657Y-89366433D01*
X100935483Y-89557510D01*
X101102490Y-89724517D01*
X101293567Y-89863343D01*
X101392991Y-89914002D01*
X101504003Y-89970566D01*
X101504005Y-89970566D01*
X101504008Y-89970568D01*
X101624412Y-90009689D01*
X101728631Y-90043553D01*
X101961903Y-90080500D01*
X101961908Y-90080500D01*
X102198097Y-90080500D01*
X102431368Y-90043553D01*
X102655992Y-89970568D01*
X102866433Y-89863343D01*
X103057510Y-89724517D01*
X103224517Y-89557510D01*
X103363343Y-89366433D01*
X103470568Y-89155992D01*
X103543553Y-88931368D01*
X103552563Y-88874481D01*
X103580500Y-88698097D01*
X103580500Y-88461902D01*
X103543553Y-88228631D01*
X103470566Y-88004003D01*
X103363342Y-87793566D01*
X103224517Y-87602490D01*
X103057510Y-87435483D01*
X102866433Y-87296657D01*
X102655996Y-87189433D01*
X102431368Y-87116446D01*
X102198097Y-87079500D01*
X102198092Y-87079500D01*
X101961908Y-87079500D01*
X101961903Y-87079500D01*
X101728631Y-87116446D01*
X101504003Y-87189433D01*
X101293566Y-87296657D01*
X101204536Y-87361342D01*
X101102490Y-87435483D01*
X101102488Y-87435485D01*
X101102487Y-87435485D01*
X100935485Y-87602487D01*
X100935485Y-87602488D01*
X100935483Y-87602490D01*
X100888284Y-87667454D01*
X100796657Y-87793566D01*
X100689433Y-88004003D01*
X100616446Y-88228631D01*
X100579500Y-88461902D01*
X88580499Y-88461902D01*
X88580499Y-87779992D01*
X88569999Y-87677203D01*
X88514814Y-87510666D01*
X88422712Y-87361344D01*
X88298656Y-87237288D01*
X88149334Y-87145186D01*
X87982797Y-87090001D01*
X87982795Y-87090000D01*
X87880010Y-87079500D01*
X86279998Y-87079500D01*
X86279981Y-87079501D01*
X86177203Y-87090000D01*
X86177200Y-87090001D01*
X86010668Y-87145185D01*
X86010663Y-87145187D01*
X85861342Y-87237289D01*
X85737289Y-87361342D01*
X85645187Y-87510663D01*
X85645186Y-87510666D01*
X85590001Y-87677203D01*
X85590001Y-87677204D01*
X85590000Y-87677204D01*
X85579500Y-87779983D01*
X69146007Y-87779983D01*
X69109199Y-87753240D01*
X68940836Y-87667454D01*
X68761118Y-87609059D01*
X68574486Y-87579500D01*
X68574481Y-87579500D01*
X68385519Y-87579500D01*
X68385514Y-87579500D01*
X68198881Y-87609059D01*
X68019163Y-87667454D01*
X67850800Y-87753240D01*
X67795297Y-87793566D01*
X67697927Y-87864310D01*
X67697925Y-87864312D01*
X67697924Y-87864312D01*
X67564312Y-87997924D01*
X67564312Y-87997925D01*
X67564310Y-87997927D01*
X67559896Y-88004003D01*
X67453240Y-88150800D01*
X67367454Y-88319163D01*
X67309059Y-88498881D01*
X67279500Y-88685513D01*
X60500500Y-88685513D01*
X60500500Y-85865513D01*
X80379500Y-85865513D01*
X80379500Y-86054486D01*
X80409059Y-86241118D01*
X80467454Y-86420836D01*
X80547127Y-86577202D01*
X80553240Y-86589199D01*
X80664310Y-86742073D01*
X80797927Y-86875690D01*
X80950801Y-86986760D01*
X81030347Y-87027290D01*
X81119163Y-87072545D01*
X81119165Y-87072545D01*
X81119168Y-87072547D01*
X81172886Y-87090001D01*
X81298881Y-87130940D01*
X81485514Y-87160500D01*
X81485519Y-87160500D01*
X81674486Y-87160500D01*
X81861118Y-87130940D01*
X82040832Y-87072547D01*
X82209199Y-86986760D01*
X82362073Y-86875690D01*
X82495690Y-86742073D01*
X82540802Y-86679982D01*
X110819500Y-86679982D01*
X110819500Y-88480017D01*
X110830000Y-88582796D01*
X110864037Y-88685513D01*
X110885186Y-88749335D01*
X110977288Y-88898656D01*
X111101344Y-89022712D01*
X111250665Y-89114814D01*
X111417202Y-89169999D01*
X111519990Y-89180500D01*
X111519995Y-89180500D01*
X113320005Y-89180500D01*
X113320010Y-89180500D01*
X113422798Y-89169999D01*
X113589335Y-89114814D01*
X113738656Y-89022712D01*
X113862712Y-88898656D01*
X113954814Y-88749335D01*
X114009999Y-88582798D01*
X114020500Y-88480010D01*
X114020500Y-87454038D01*
X120979500Y-87454038D01*
X120979500Y-87705961D01*
X121018910Y-87954785D01*
X121096760Y-88194383D01*
X121211132Y-88418848D01*
X121359201Y-88622649D01*
X121359205Y-88622654D01*
X121537345Y-88800794D01*
X121537350Y-88800798D01*
X121715117Y-88929952D01*
X121741155Y-88948870D01*
X121884184Y-89021747D01*
X121965616Y-89063239D01*
X121965618Y-89063239D01*
X121965621Y-89063241D01*
X122205215Y-89141090D01*
X122454038Y-89180500D01*
X122454039Y-89180500D01*
X122705961Y-89180500D01*
X122705962Y-89180500D01*
X122954785Y-89141090D01*
X123194379Y-89063241D01*
X123418845Y-88948870D01*
X123622656Y-88800793D01*
X123800793Y-88622656D01*
X123948870Y-88418845D01*
X124063241Y-88194379D01*
X124141090Y-87954785D01*
X124180500Y-87705962D01*
X124180500Y-87454038D01*
X124141090Y-87205215D01*
X124063241Y-86965621D01*
X124063239Y-86965618D01*
X124063239Y-86965616D01*
X124017417Y-86875687D01*
X123948870Y-86741155D01*
X123849183Y-86603947D01*
X123800798Y-86537350D01*
X123800794Y-86537345D01*
X123622654Y-86359205D01*
X123622649Y-86359201D01*
X123418848Y-86211132D01*
X123418847Y-86211131D01*
X123418845Y-86211130D01*
X123348747Y-86175413D01*
X123194383Y-86096760D01*
X122954785Y-86018910D01*
X122705962Y-85979500D01*
X122454038Y-85979500D01*
X122387738Y-85990001D01*
X122205214Y-86018910D01*
X121965616Y-86096760D01*
X121741151Y-86211132D01*
X121537350Y-86359201D01*
X121537345Y-86359205D01*
X121359205Y-86537345D01*
X121359201Y-86537350D01*
X121211132Y-86741151D01*
X121096760Y-86965616D01*
X121018910Y-87205214D01*
X120979500Y-87454038D01*
X114020500Y-87454038D01*
X114020500Y-86679990D01*
X114009999Y-86577202D01*
X113954814Y-86410665D01*
X113862712Y-86261344D01*
X113738656Y-86137288D01*
X113589335Y-86045186D01*
X113422798Y-85990001D01*
X113422796Y-85990000D01*
X113320017Y-85979500D01*
X113320010Y-85979500D01*
X111519990Y-85979500D01*
X111519982Y-85979500D01*
X111417203Y-85990000D01*
X111417202Y-85990001D01*
X111334669Y-86017349D01*
X111250667Y-86045185D01*
X111250662Y-86045187D01*
X111101342Y-86137289D01*
X110977289Y-86261342D01*
X110885187Y-86410662D01*
X110885185Y-86410667D01*
X110857349Y-86494669D01*
X110830001Y-86577202D01*
X110830001Y-86577203D01*
X110830000Y-86577203D01*
X110819500Y-86679982D01*
X82540802Y-86679982D01*
X82606760Y-86589199D01*
X82692547Y-86420832D01*
X82750940Y-86241118D01*
X82773804Y-86096760D01*
X82780500Y-86054486D01*
X82780500Y-85865513D01*
X82750940Y-85678881D01*
X82692545Y-85499163D01*
X82606759Y-85330800D01*
X82495690Y-85177927D01*
X82362073Y-85044310D01*
X82209199Y-84933240D01*
X82040836Y-84847454D01*
X81861118Y-84789059D01*
X81674486Y-84759500D01*
X81674481Y-84759500D01*
X81485519Y-84759500D01*
X81485514Y-84759500D01*
X81298881Y-84789059D01*
X81119163Y-84847454D01*
X80950800Y-84933240D01*
X80863579Y-84996610D01*
X80797927Y-85044310D01*
X80797925Y-85044312D01*
X80797924Y-85044312D01*
X80664312Y-85177924D01*
X80664312Y-85177925D01*
X80664310Y-85177927D01*
X80616610Y-85243579D01*
X80553240Y-85330800D01*
X80467454Y-85499163D01*
X80409059Y-85678881D01*
X80379500Y-85865513D01*
X60500500Y-85865513D01*
X60500500Y-80624500D01*
X60520185Y-80557461D01*
X60572989Y-80511706D01*
X60624500Y-80500500D01*
X129375500Y-80500500D01*
X129442539Y-80520185D01*
G37*
%TD.AperFunction*%
%TD*%
M02*
